<?xml version="1.0" encoding="utf-8"?>
<!-- Generator: Adobe Illustrator 17.1.0, SVG Export Plug-In . SVG Version: 6.00 Build 0)  -->
<!DOCTYPE svg PUBLIC "-//W3C//DTD SVG 1.1//EN" "http://www.w3.org/Graphics/SVG/1.1/DTD/svg11.dtd">
<svg version="1.1" id="Layer_1" xmlns="http://www.w3.org/2000/svg" xmlns:xlink="http://www.w3.org/1999/xlink" x="0px" y="0px"
	 viewBox="-4 226 436 206" style="enable-background:new -4 226 436 206;" xml:space="preserve">
<style type="text/css">
	.st0{fill:#92AB3E;}
	.st1{fill:#231F20;}
</style>
<g id="Layer_3">
	<path class="st0" d="M210.7,297.6c0,0-1.8-15.1-10.1-16.4c-8.3-1.3,20.7-8.3,15.4,16.4H210.7z M221.3,298.1c0,0-0.5-12.4-6.8-21.4
		c-6.4-9.1-1-20.4,5.3-23.8c6.3-3.2-11.9,4,9.1,20.2s5.6,18.2,0,25L221.3,298.1z"/>
	<path class="st1" d="M179.7,297.4c0,0,0,0.2,0.1,0.5c0.1,0.3,0.1,0.9,0.2,1.6c0.2,1.4,0.5,3.3,1.1,5.7c0.3,1.2,0.7,2.4,1.1,3.7
		c0.5,1.3,1,2.6,1.7,4l1,2.1l1.2,2.1c0.4,0.7,0.9,1.4,1.4,2c0.4,0.7,1,1.3,1.5,2c0.5,0.7,1.1,1.3,1.6,1.9l1.7,1.7
		c1.2,1.1,2.4,2.1,3.7,2.8c0.7,0.4,1.3,0.9,2,1.2c0.7,0.4,1.3,0.8,2,1c0.7,0.3,1.3,0.6,1.9,0.9c0.7,0.2,1.3,0.5,1.9,0.7
		c0.6,0.2,1.2,0.4,1.7,0.5c0.5,0.2,1.1,0.3,1.6,0.4c0.5,0.1,1,0.2,1.4,0.3l0.6,0.2c0.2,0.1,0.4,0.1,0.6,0.1c1.5,0.2,2.2,0.4,2.2,0.4
		s-0.9-0.1-2.2-0.2l-0.6-0.1c-0.2-0.1-0.4-0.1-0.7-0.1c-0.4-0.1-0.9-0.2-1.4-0.2c-0.5-0.1-1-0.2-1.6-0.3c-0.5-0.1-1.1-0.3-1.8-0.4
		l-1.9-0.6c-0.7-0.2-1.3-0.5-2-0.8c-0.7-0.2-1.4-0.6-2.1-0.9c-0.7-0.3-1.4-0.7-2.1-1.1c-1.4-0.8-2.7-1.7-4-2.7l-2-1.6
		c-0.6-0.6-1.3-1.2-1.9-1.9c-0.6-0.7-1.2-1.3-1.7-2l-1.6-2.1c0,0-1-1.4-1.4-2.1l-1.3-2.1c-0.8-1.4-1.5-2.8-2.1-4.2
		c-0.6-1.4-1.1-2.6-1.5-3.9c-0.9-2.4-1.4-4.5-1.7-6.1c-0.2-0.8-0.3-1.4-0.3-1.8c-0.1-0.2-0.1-0.4-0.1-0.5v-0.2L179.7,297.4
		L179.7,297.4z M187.7,297.6h62.1c0,0-1,32.1-33.1,35.4C191.3,333.8,187.7,297.6,187.7,297.6L187.7,297.6z M2.2,351.3l1.4,0.2v-0.2
		l0.2,0.2h3.8l0.2-0.2l0.2,0.2h0.6l0.2-0.2l0.2,0.2h0.5l0.6-0.2l0.7,0.2l0.7-0.2l0.6,0.2v-0.2l0.2,0.2h2.3l0.2-0.2l1.1,0.3l0.2-0.1
		h1.4l0.2,0.1h0.2v-0.1l0.2,0.1h0.2l0.2-0.1h0.1v0.1l0.2-0.1h1l3.9,0.5l0.2-0.2c0,0.5,1,1.1,3,1.9l0.9,1c-0.2,0.5-0.4,0.6-0.6,0.6
		l-0.2-0.1c0,0.3-0.6,0.4-2,0.5v-0.2l-1.4,0.4l-1.9-0.4l-0.2,0.2l-0.8-0.2H20l-0.2,0.2l-0.2-0.2h-0.4l-0.6,0.2l-0.6-0.2h-0.2v0.2
		c0.3,0,0.4,0.3,0.4,0.8l0.2,0.2l-0.2,0.2v0.2l0.3,0.5l-0.5,4.6v0.8l-0.2,0.2v0.1h0.2l-0.2,0.2v0.2l0.2,0.2l-0.2,0.2v2.3l-0.2,0.2
		l0.4,1.8l-0.2,1.3l0.2,1.8l-0.2,0.8l0.2,0.5l-0.2,0.6h0.2l-0.2,0.2v4.1l-0.2,0.2l0.2,0.1v0.2l-0.2,0.2l0.2,0.8v1.8l-0.2,1.2h0.2
		l-0.2,0.1v0.4l0.2,0.7l-0.2,0.2v0.5h0.2l-0.2,1.2v1.8l0.2,0.6l-0.2,0.6h0.2l-0.2,0.2v1.3l0.2,0.2l-0.2,0.1v2.2l0.2,0.7l-0.2,0.2
		v0.2l0.2,0.1v0.2l-0.2,0.6l0.2,0.2h-0.2l0.2,0.2v0.7l-0.4,0.4l0.2,0.8v4.7l0.2,0.1l-0.2,0.2v0.2l0.4,2h-0.2l0.2,0.2v2.1l-0.2,0.6
		l0.2,0.6v0.7h-0.2l-0.2-0.2h-0.2l-0.2,0.2l0.6,2.3v0.8l-0.2,0.2l0.2,0.2v0.5c-0.5,0-0.6,0.5-0.6,1.4l0.1,0.2v0.2l-0.1,0.6l0.3,0.3
		v0.8l-0.5,1.2l-0.6-0.1l-0.8,0.5l-0.2-0.2l-0.5,0.6v-0.2l-0.6,0.4l-0.7-0.4l-0.6,0.2c-1.3-0.5-2.2-1.1-2.7-2l-0.5-2.1l0.1-0.5
		l-0.1-0.2l0.1-0.2H10l0.1-0.2v-2.2l-0.1-0.6l0.1-0.8v-3l-0.1-0.6l0.1-0.7V402l-0.1-0.7l0.1-0.6v-0.4l-0.1-0.7l0.1-0.5l-0.1-0.8h0.1
		l-0.1-0.2v-5.3l-0.3-0.4l0.2-0.2v-1.1l-0.2-0.7l0.2-0.6l-0.2-0.7l0.2-0.1V389l-0.2-0.2v-0.2l0.2-0.6l-0.2-0.2l0.2-0.8v-2.3l0.1-0.2
		l-0.1-0.2v-1.5l0.1-0.2l-0.1-0.2v-0.6l0.1-0.2v-0.2l-0.1-0.1l0.1-0.2L9.9,381H10l-0.1-0.2v-2.5L10,378l-0.1-0.1v-0.2l0.1-0.2v-0.2
		l-0.1-0.8H10L9.9,376l0.1-0.2v-0.1l-0.1-0.2v-0.2l0.1-1.9V373l-0.1-0.2v-0.2H10l-0.1-0.2v-0.2l0.1-1H9.9l0.1-0.2v-2.2l-0.1-0.2
		l0.1-0.2v-3.4l0.2-0.2l-0.2-0.2l0.7-9.4l-0.2-0.2l-0.2,0.2H7.1l-0.2,0.2H6.8l-1.3-0.5v0.2l-2.1-0.7l-0.2,0.2l-1.2-1
		c-0.2-0.6-0.5-1-0.8-1l0.2-0.2v-0.2l-0.4-0.8l0.2,0.1L2.2,351.3L2.2,351.3z M31.3,353.4h1l5,1.6l0.2-0.2c1,0.7,1.6,1.6,1.6,2.5
		l-0.4,0.4v0.4l-0.2,3.1l0.2,0.2v0.1l-0.2,0.2v0.2l0.2,0.6l-0.2,0.6c0.1,0.8,0.3,1.2,0.4,1.2l-0.4,1.2l0.2,0.2l-0.2,0.9v0.1l0.2,0.2
		v0.2l0.8-0.2h1.5l0.6-0.3l0.8,0.1v-0.1l0.2,0.1h0.2c0.2,0,0.4-0.3,0.5-0.8l-0.4-2l0.2-0.2l-0.2-0.8v-1.7l-0.1-0.2v-0.2h0.1
		l-0.1-0.2v-0.1l0.1-0.2l-0.1-0.2v-0.2l0.1-0.2l-0.3-0.7l0.2-0.5c0-0.6-0.1-0.8-0.4-0.8l0.2-0.2v-0.2l-0.2-0.5h0.2
		c-0.4-1-0.6-1.8-0.6-2.3h0.6v-0.2l1.4,0.6l0.5-0.2l1.8,0.8l0.2-0.2c0,0.4,0.6,0.6,2,0.9c0,0.4,0.3,0.6,0.8,0.6
		c0.5,0.3,0.8,1.8,1.1,4.2h-0.2l0.3,0.5l-0.1,0.2v0.2l0.1,0.2l-0.1,0.2l0.1,0.8v1.2l0.2,0.2v0.2h-0.2l0.2,0.1v0.2l-0.2,0.2l0.2,0.2
		v0.9c0,1.1,0.1,1.7,0.4,1.7l-0.2,0.2v0.6l0.2,0.6l-0.2,0.8v1.4l0.2,0.2l-0.2,0.2v0.2l0.2,0.2v0.1l-0.2,0.7h0.2l-0.2,0.2v3.1
		l-0.4,0.5v0.2l0.4,0.6v0.2l-0.2-0.2h-0.2l-0.1,0.2l0.1,0.2l-0.6,4.3h0.2l-0.4,1.2h0.4l-0.2,0.8v0.6l0.2,0.2v0.1h-0.2l0.2,0.2v0.2
		l-0.2,0.2l0.2,0.2v0.1l-0.2,1.3h0.2l-0.4,0.6l0.4,1.2h-0.2c0.1,0.9,0.3,1.4,0.6,1.4l-0.2,0.2v0.2c0.1,1,0.4,1.5,0.6,1.5v0.4
		l-0.5,0.8l0.3,2.3l-0.2,0.2h0.2l-0.2,0.2v0.2l0.2,0.2l-0.2,0.2v1.1l0.2,0.2v0.2l-0.3,0.4h0.1l-0.1,0.2v0.2l0.3,1l-0.3,1h-0.2v0.8
		l-0.2,0.2l0.2,0.2v0.4l-0.2,0.2l0.2,0.1v0.4l-0.4,0.6v1.7l0.2,0.2v0.2l-0.2,0.2h-0.2l0.2,0.8v1.2c0,1.5,0.2,2.2,0.6,2.2l-0.2,0.2
		l0.2,0.8v0.4l-0.2,0.2l0.2,0.2l-0.4,1.7l0.2,0.2v0.8c-0.3,0.5-0.7,0.8-1.3,1.1l-0.2-0.2l-0.6,0.5l-1-0.2v0.4h-0.2
		c-0.6,0-0.8-0.1-0.8-0.4l-0.6,0.2c-1.2-0.5-1.9-1.4-1.9-2.8h-0.2l0.4-1.4h-0.2l0.2-0.2l-0.2-1.2v-6.1l0.2-0.1v-0.2h-0.2l0.2-0.6
		l-0.2-0.1l0.2-0.9v-1.9l-0.2-0.2l0.2-0.2v-4h-0.4v-0.2h0.4v-0.4l-0.2-0.7l0.2-0.1l-0.4-3.2h0.2l-0.4-1.9l0.2-0.2l-0.2-0.8v-0.2
		l0.2-0.2l-0.4-0.5l0.2-0.2v-0.2l-0.2-0.6l0.2-0.2l-0.2-0.2H43l-0.2-0.2v-1.6l0.2-0.1l-0.1,0.1v-0.2l0.2-0.7l-0.2-1.2l0.2-0.6h-0.2
		l0.2-0.2v-0.2l-0.2-0.5l0.2-0.9V379l-0.2-0.2l0.2-0.2v-1.8l-0.2-0.2l0.2-0.2v-0.6l-0.2-0.2v-0.1l0.2-0.2h-0.2l0.2-0.2V375l-0.2-0.1
		v-0.2l0.2-1.2l-0.2-0.2v-0.2l0.2-0.1l-0.2-0.9v-0.5l0.2-0.2l-0.4-0.9l-0.6,0.4l-0.5-0.2c0,0.4-1.1,0.6-3.2,0.9v1.2l-0.1,1.2h0.1
		l-0.1,0.1v0.9l0.1,0.2l-0.1,0.2v0.5l0.1,0.2l-0.3,1l0.2,0.2v0.2l-0.2,1.6v0.3l0.2,0.2l-0.4,2.2l0.2,0.2v0.2l-0.2,0.5l0.2,0.2
		l-0.6,2.3l0.2,0.2l-0.2,0.8v0.7l0.2,0.2l-0.2,0.2v0.3l0.2,0.2l-0.2,0.2l0.2,0.8l-0.2,1.6l0.2,0.6c-0.1,0.7-0.2,1.1-0.4,1.1l0.2,0.2
		l-0.2,2.3h-0.2c0-0.5-0.1-0.6-0.3-0.6v-0.2h0.3V393l-0.2-0.2v-0.2l0.2-0.2h-0.3l-0.2,1h0.2l-0.2,0.2v0.7h0.2v-0.4H37v0.8l0.2-0.2
		h0.2v0.2l-0.2,0.2l0.2,0.5L37,396l0.2,0.2H37l0.4,0.8l-0.2,3.1H37c0-1.2-0.1-1.8-0.3-1.8h-0.2v0.2h0.4c-0.5,1.2-0.7,2.4-0.7,3.7
		l0.2,0.5H36l0.4,1.6l-0.2,1.6v1.1l-0.2,0.2l0.2,0.2v0.7c0,0.6-0.1,0.8-0.4,0.8L36,409l-0.5,3l0.2,0.2v0.6l-0.2,0.9l0.2,0.1
		l-0.6,0.7h0.2c0,0.5-0.4,0.7-1,1v-0.2l-0.2,0.2H34l-0.8-0.2v0.2l-0.2-0.2h-0.6l-0.1,0.2l-1.2-0.5v0.2c-0.9-0.6-1.4-1-1.4-1.3
		l0.1-0.2v-0.1l-0.1-0.6h0.1l-0.1-0.2v-2.2l-0.2-0.2l0.2-0.2v-1l-0.2-0.8l0.2-0.8l-0.4-2h0.2l-0.2-0.2v-1.4l0.2-5l0.2-0.2h-0.2
		l0.3-1.7l-0.1-0.2v-2.2l0.1-0.1v-0.2h-0.1l0.1-0.2v-0.2l-0.1-0.2l0.3-2l-0.2-0.2l0.4-2l-0.2-0.2l0.2-0.8V386l0.2-0.2l-0.4-1
		l0.2-0.5l-0.2-0.7l0.2-1.5v-1l-0.2-0.9l0.2-0.2h-0.2l0.2-0.5l-0.2-0.7l0.2-0.1v-0.1l-0.2-0.7l0.2-0.2v-0.1l-0.2-0.2h0.2l-0.2-0.2
		l0.2-0.9l-0.2-0.5l0.2-1.2v-2.3l0.2-0.2l-0.2-0.2v-0.1l0.2-0.2v-0.2l-0.2-0.6l0.2-1.5l-0.2-0.7l0.2-0.2l-0.2-0.8l0.2-0.8h-0.2
		l0.4-1.8h-0.2l0.2-0.2v-3l-0.2-0.2l0.2-0.2v-1.7l-0.2-0.2l0.2-0.6l-0.2-0.6l0.4-1.9l-0.2-0.2l0.2-0.8v-1.7L31.3,353.4L31.3,353.4z
		 M36.5,397.1v0.5l0.4-0.3l-0.2-0.2H36.5z M36.7,403.6h0.2L37,405l-0.1,0.2H37l-0.1,0.2l0.1,0.8l-0.1,0.2l0.1,0.2v0.3l-0.3-0.3
		V403.6L36.7,403.6z M36.9,390v0.8h0.3L36.9,390z M36.9,391.2v0.8H37L36.9,391.2z M36.9,407.1l0.1,0.7h-0.1V407.1z M36.9,408.1h0.3
		l-0.2,0.6h-0.1V408.1z M69.1,353.2l0.2,0.2h0.1l1.6-0.2v0.2l0.2-0.2h1l0.2,0.2l0.2-0.2h0.2l0.5,0.2v-0.2c1.2,0,2.6,0.6,4.3,1.6
		c0.8,0,1.3,0.3,1.6,0.9v0.2l-1.2,0.6l-0.2-0.2v0.4l-0.8-0.2v0.2l-0.2-0.2c-2.1,0.3-3.2,0.5-3.5,0.7l-0.2-0.2h-0.2
		c-0.4,0.3-1.5,0.6-3.3,0.8c-0.8,0.3-1.5,0.6-2,1.2l-0.2-0.2c-1.2,1.1-2.3,2.8-3.3,5.3h-0.2L64,364v0.2c-0.6,1.6-1,3.1-1,5.1
		l0.2,0.2h0.2l0.2-0.2v0.2l0.1-0.2h2.1l0.8,0.2l0.2-0.2v0.2l1-0.4l0.8,0.4l0.2-0.2c0,0.3,1.7,0.8,4.9,1.7c0,0.4,0.5,0.6,1.4,0.9
		c0,0.5-0.7,0.9-2.2,1.4V373l-0.2,0.2H72l-0.2-0.2h-0.2v0.3l-0.1-0.1h-0.3v0.1l-0.2-0.1h-0.6l-0.8,0.1l-0.2-0.1l-0.3,0.3l-0.2-0.2
		v0.2l-0.2-0.2h-0.4l-0.2,0.2l-0.2-0.2h-0.4l-1.1,0.2l-0.2-0.2l-0.2,0.2v-0.2l-0.2,0.2h-0.2l-0.1-0.2l-0.2,0.2h-0.2l-1.1-0.2v0.2
		l-1.7-0.3v1.1l0.2,1.3h-0.2l0.2,0.2v0.3l-0.2,0.2l0.2,0.2v0.2l-0.2,0.1l0.2,0.6l0.5,7.4l-0.1,0.5l0.3,1.4l-0.2,0.7v0.5l0.2,0.2
		l-0.2,0.2v0.2l0.2,0.6l-0.2,1.6h0.2l-0.2,0.2v3.1l0.2,0.6l-0.2,0.7v1l0.2,1.9l-0.2,0.8h0.2l-0.2,0.2v0.2l0.2,0.7l-0.2,0.2v0.2
		l0.2,0.1l-0.2,1.8v0.6l-0.1,0.2l0.1,0.2v0.4l-0.1,0.6l0.1,0.5h-0.3l0.2,0.2v1.9l0.1,1.2h0.2l0.1,0.2v0.2l-0.1,0.1l0.1,0.2l-0.1,0.7
		l0.3,1.3h-0.2c1,2,1.9,3,2.4,3.2c0,0.2,0.3,0.3,0.8,0.3l3.1-1l2.7,0.4l0.1-0.2l0.2,0.2v-0.2c1.6,0.3,2.3,0.6,2.5,0.8l0.6-0.2v0.2
		c0.4,0.4,0.7,0.6,1.2,0.6v0.4l-1.4,1.2v0.1l-0.2-0.1l-1.9,0.6v-0.2c-0.5,0.4-1.2,0.6-2.2,0.7l-0.3-0.2l-2,0.4l-0.2-0.2h-0.2
		l-0.7,0.2l-0.6-0.2l-0.2,0.2l-0.2-0.2v0.2l-0.2-0.2h-0.2l-0.8,0.2l-3-1.1l-0.2,0.2h-0.2l-2.2-1l-0.2,0.2c0-0.3-0.5-0.6-1.4-1
		c-1.2-1-2-1.9-2.4-2.9h-0.2l0.2-0.1v-0.2c-0.3,0-0.6-0.4-0.9-1.1l0.2-0.2l-0.2-0.1v-0.2l0.2-0.2v-0.2h-0.4v-0.2l-0.2-1.9l0.2-0.2
		V407l-0.2-0.5l0.2-0.2l-0.2-0.8l0.2-2.2l-0.2-0.1l0.2-0.6l-0.2-0.2v-0.2l0.2-0.5h-0.2l0.4-1l-0.2-0.2l0.2-1.8v-1l-0.2-0.6l0.2-0.2
		v-0.2l-0.2-1.4h0.2l-0.2-0.2v-0.2l0.2-1.3l-0.2-0.9l0.2-0.2v-0.1l-0.2-0.2l0.2-0.6l-0.2-0.2v-0.1l0.2-0.1l-0.2-0.8v-0.4h0.2
		l-0.2-0.9v-1.3l-0.4-3.1l0.4-0.4l-0.2-0.6h0.2l-0.2-0.2v-0.6l0.2-0.8l-0.2-0.2h0.2L55,381l0.2-0.2v-0.2L55,380h0.2l-0.2-0.1v-0.2
		l0.2-0.2c-0.2-1.2-0.4-1.9-0.5-1.9l0.2-0.2V377l-0.2-1l0.2-0.2l-0.4-5.4l0.2-0.2v-0.2l-0.2-0.6v-1.3l0.2-0.1l-0.2-0.2v-0.2l0.2-0.6
		h-0.1c0.3-2.6,1-5.2,2.2-7.5l2-3.3l3.3-1.8v-0.2l0.2,0.2h0.2c0.6-0.4,1.8-0.7,3.4-1.1v0.2l0.6-0.4l0.2,0.2h0.1
		C67,353.3,67.8,353.2,69.1,353.2L69.1,353.2z M105.1,351.3l1.4,0.2v-0.2l0.2,0.2h3.8l0.2-0.2l0.2,0.2h0.6l0.2-0.2l0.2,0.2h0.5
		l0.6-0.2l0.7,0.2l0.7-0.2l0.6,0.2v-0.2l0.2,0.2h2.3l0.2-0.2l1.1,0.3l0.2-0.1h1.4l0.2,0.1h0.2v-0.1l0.2,0.1h0.2l0.2-0.1h0.1v0.1
		l0.2-0.1h1l3.9,0.5l0.2-0.2c0,0.5,1,1.1,3,1.9l0.9,1c-0.2,0.5-0.4,0.6-0.6,0.6l-0.2-0.1c0,0.3-0.6,0.4-2,0.5v-0.2l-1.4,0.4
		l-1.9-0.4l-0.2,0.2l-0.8-0.2h-0.7l-0.2,0.2l-0.2-0.2h-0.4l-0.6,0.2l-0.6-0.2h-0.2v0.2c0.3,0,0.4,0.3,0.4,0.8l0.2,0.2l-0.2,0.2v0.2
		l0.3,0.5l-0.5,4.6v0.8l-0.2,0.2v0.1h0.2l-0.2,0.2v0.2l0.2,0.2l-0.2,0.2v2.3l-0.2,0.2l0.4,1.8l-0.2,1.3l0.2,1.8l-0.2,0.8l0.2,0.5
		l-0.2,0.6h0.2l-0.2,0.2v4.1l-0.2,0.2l0.2,0.1v0.2l-0.2,0.2l0.2,0.8v1.8l-0.2,1.2h0.2l-0.2,0.1v0.4l0.2,0.7l-0.2,0.2v0.5h0.2
		l-0.2,1.2v1.8l0.2,0.6l-0.2,0.6h0.2l-0.2,0.2v1.3l0.2,0.2l-0.2,0.1v2.2l0.2,0.7l-0.2,0.2v0.2l0.2,0.1v0.2l-0.2,0.6l0.2,0.2h-0.2
		l0.2,0.2v0.7l-0.4,0.4l0.2,0.8v4.7l0.2,0.1l-0.2,0.2v0.2l0.4,2h-0.2l0.2,0.2v2.1l-0.2,0.6l0.2,0.6v0.7h-0.2l-0.2-0.2h-0.2l-0.2,0.2
		l0.6,2.3v0.8l-0.2,0.2l0.2,0.2v0.5c-0.5,0-0.6,0.5-0.6,1.4l0.1,0.2v0.2l-0.1,0.6l0.3,0.3v0.8l-0.5,1.2l-0.6-0.1l-0.8,0.5l-0.2-0.2
		l-0.5,0.6v-0.2l-0.6,0.4l-0.7-0.4l-0.6,0.2c-1.3-0.5-2.2-1.1-2.7-2l-0.5-2.1l0.1-0.5l-0.1-0.2l0.1-0.2h-0.1l0.1-0.2v-2.2l-0.1-0.6
		l0.1-0.8v-3l-0.1-0.6l0.1-0.7V402l-0.1-0.7l0.1-0.6v-0.4l-0.1-0.7l0.1-0.5l-0.1-0.8h0.1l-0.1-0.2v-5.3l-0.2-0.1l0.2-0.2v-1.1
		l-0.2-0.6l0.2-0.6l-0.2-0.7l0.2-0.1v-0.2l-0.2-0.2v-0.6l0.2-0.6l-0.2-0.2l0.2-0.8v-2.3l0.1-0.2l-0.1-0.2v-1.5l0.1-0.2l-0.1-0.2
		v-0.6l0.1-0.2v-0.2l-0.1-0.1l0.1-0.2l-0.1-0.2h0.1l-0.1-0.2v-2.5l0.1-0.2l-0.1-0.1v-0.2l0.1-0.2v-0.2l-0.1-0.8h0.1l-0.1-0.6
		l0.1-0.2v-0.1l-0.1-0.2v-0.2l0.1-1.9V373l-0.1-0.2v-0.2h0.1l-0.1-0.2v-0.2l0.1-1h-0.1l0.1-0.2v-2.2l-0.1-0.2l0.1-0.2v-3.4l0.2-0.2
		l-0.2-0.2l0.7-9.4l-0.2-0.2l-0.2,0.2l-3.1-0.6l-0.2,0.2h-0.2l-1.3-0.5v0.2l-2.1-0.7l-0.2,0.2l-1.2-1c-0.2-0.6-0.5-1-0.8-1l0.2-0.2
		v-0.2L104,351l0.2,0.1L105.1,351.3L105.1,351.3z M146.8,353.2l0.2,0.2h0.1l1.6-0.2v0.2l0.2-0.2h1l0.2,0.2l0.2-0.2h0.2l0.5,0.2v-0.2
		c1.2,0,2.6,0.6,4.3,1.6c0.8,0,1.3,0.3,1.6,0.9v0.2l-1.2,0.6l-0.2-0.2v0.4l-0.8-0.2v0.2l-0.2-0.2c-2.1,0.3-3.2,0.5-3.5,0.7l-0.2-0.2
		h-0.3c-0.4,0.3-1.5,0.6-3.3,0.8c-0.8,0.3-1.5,0.6-2,1.2l-0.2-0.2c-1.2,1.1-2.3,2.8-3.3,5.3h-0.2l0.2,0.1v0.2c-0.6,1.6-1,3.1-1,5.1
		l0.2,0.2h0.2l0.2-0.2v0.2l0.1-0.2h2.1l0.8,0.2l0.2-0.2v0.2l1-0.4l0.8,0.4l0.2-0.2c0,0.3,1.7,0.8,4.9,1.7c0,0.4,0.5,0.6,1.4,0.9
		c0,0.5-0.7,0.9-2.2,1.4V373l-0.2,0.2h-0.6l-0.2-0.2h-0.2v0.3l-0.1-0.1h-0.2v0.1l-0.2-0.1h-0.6l-0.8,0.1l-0.2-0.1l-0.3,0.3l-0.2-0.2
		v0.2l-0.2-0.2h-0.4l-0.2,0.2l-0.2-0.2h-0.2l-1.1,0.2l-0.2-0.2l-0.2,0.2v-0.2l-0.2,0.2h-0.2l-0.1-0.2l-0.2,0.2h-0.2l-1.1-0.2v0.2
		l-1.7-0.3v1.1l0.2,1.3h-0.2l0.2,0.2v0.3l-0.2,0.2l0.2,0.2v0.2l-0.2,0.1l0.2,0.6l0.5,7.4l-0.1,0.5l0.3,1.4l-0.2,0.7v0.5l0.2,0.2
		l-0.2,0.2v0.2l0.2,0.6l-0.2,1.6h0.2l-0.2,0.2v3.1l0.2,0.6l-0.2,0.7v1l0.2,1.9l-0.2,0.8h0.2l-0.2,0.2v0.2l0.2,0.7l-0.2,0.2v0.2
		l0.2,0.1l-0.2,1.8v0.6l-0.1,0.2l0.1,0.2v0.4L141,404l0.1,0.5h-0.3l0.2,0.2v1.9l0.1,1.2H141l0.1,0.2v0.2l-0.1,0.1l0.1,0.2l-0.1,0.9
		l0.3,1.3h-0.2c1,2,1.9,3,2.4,3.2c0,0.2,0.3,0.3,0.8,0.3l3.1-1l2.7,0.4l0.1-0.2l0.2,0.2v-0.2c1.6,0.3,2.3,0.6,2.5,0.8l0.6-0.2v0.2
		c0.4,0.4,0.7,0.6,1.2,0.6v0.4l-1.4,1.2v0.1l-0.2-0.1l-1.9,0.6v-0.2c-0.5,0.4-1.2,0.6-2.2,0.7l-0.2-0.2l-2,0.4l-0.2-0.2h-0.2
		l-0.7,0.2l-0.6-0.2l-0.2,0.2l-0.2-0.2v0.2l-0.2-0.2h-0.2l-0.8,0.2l-3-1.1l-0.2,0.2h-0.2l-2.2-1l-0.2,0.2c0-0.3-0.5-0.6-1.4-1
		c-1.2-1-2-1.9-2.4-2.9H134l0.2-0.1v-0.2c-0.3,0-0.6-0.4-0.9-1.1l0.2-0.2l-0.2-0.1v-0.2l0.2-0.2v-0.2h-0.4v-0.2l-0.2-1.9l0.2-0.2
		v-0.2l-0.2-0.5l0.2-0.2l-0.2-0.8l0.2-2.2l-0.2-0.1v-0.2l0.2-0.6l-0.2-0.2v-0.2l0.2-0.5h-0.2l0.4-1l-0.2-0.2l0.2-1.8v-1l-0.2-0.6
		l0.2-0.2v-0.2l-0.2-1.4h0.2l-0.2-0.2v-0.2l0.2-1.3l-0.2-0.9l0.2-0.2v-0.1l-0.2-0.2l0.2-0.6l-0.2-0.2v-0.1l0.2-0.2l-0.2-0.8v-0.4
		h0.2l-0.2-0.9v-1.3l-0.4-3.1l0.4-0.4l-0.2-0.6h0.2l-0.2-0.2v-0.6l0.2-0.8l-0.2-0.2h0.2l-0.4-1.4l0.2-0.2v-0.2l-0.2-0.6h0.2
		l-0.2-0.1v-0.2l0.2-0.2c-0.2-1.2-0.4-1.9-0.5-1.9l0.2-0.2v-0.4l-0.2-1l0.2-0.2l-0.4-5.4l0.2-0.2V370l-0.2-0.6v-1.3l0.2-0.1
		l-0.2-0.2v-0.2l0.2-0.6h-0.2c0.3-2.6,1-5.2,2.2-7.5l2-3.3l3.3-1.8v-0.2l0.2,0.2h0.2c0.6-0.4,1.8-0.7,3.4-1.1v0.2l0.6-0.4l0.2,0.2
		h0.1c0.3-0.2,1.1-0.3,2.2-0.3v0.1L146.8,353.2z M174.2,351.4l0.2,0.1h0.8l0.2-0.1c0.9,0.3,1.4,0.8,1.4,1.7l-0.2,0.2l0.4,1.9
		l-0.4,0.4l0.8,4.3l-0.2,0.2v0.2l0.4,1.4l-0.2,0.1v0.2l0.6,1.9l-0.2,0.2v0.2l0.4,1.1h-0.2c0,0.6,0.2,0.9,0.5,0.9v0.2h-0.3l0.3,1
		h-0.2l0.8,3.3l0.2-0.2h0.2c1,1.6,1.6,3.1,1.6,5.1l-0.2,0.6c0.2,0,0.4,0.6,0.6,1.6h-0.2l0.6,2.6h-0.2l1.4,4.9c0,0.4,0.1,0.6,0.4,0.6
		v0.2L183,386l1.2,3.7h0.2l-0.2,0.2v0.2l0.4,0.6l-0.2,0.2v0.2l0.4,0.3h-0.2c0.1,1.1,0.5,2.2,1,3.3v0.2l-0.2,0.2l0.9,1.6
		c0.3,3.1,0.7,4.9,1.3,5.4l-0.2,0.2v0.6h0.4v0.4l1.2,4.9l-0.2,0.2h0.4l-0.2,0.6l0.7,1.7l-0.4,1.3h0.2c-0.1,0.4-0.8,0.9-2.2,1.7
		l-0.2,0.6l-0.2-0.2h-0.2c-0.3,0.5-0.6,0.7-0.8,0.8l-0.2-0.2c-1,0.7-2,1.3-3,1.6l-0.6-0.2l0.2-0.2v-0.1l-0.4-0.4h0.2l-0.4-1.4h0.2
		l-1.2-5.3h0.2c-1.2-5.9-1.9-8.8-2-8.9l0.1-0.2c-0.2-1.5-0.4-2.2-0.6-2.2l0.2-0.2l-1-4.9h0.2c-0.2-0.6-0.4-0.8-0.6-0.8h-0.2
		l-0.1,0.2l-0.2-0.2h-0.4l-1.2,0.2l-0.2-0.2l-0.2,0.2v-0.2l-0.1,0.2h-0.2l-0.2-0.2l-0.2,0.2H174l-1-0.2l-0.2,0.2l-0.2-0.2l-0.4,1.8
		h0.2l-0.3,1.8h0.1c-0.2,0.6-0.3,1.6-0.3,3v0.2l0.2,0.2l-0.2,0.2v1.2c0,0.8-0.8,3.5-2.3,8l0.1,0.2v0.2c-0.2,0.2-0.5,1.2-0.9,3
		c-0.2,0-0.5,0.8-0.9,2.3c-0.8,0.9-1.7,1.6-2.4,1.9l-0.2-0.2l-1.9,1.3l-0.2-0.1l-1.7,1v-0.2c-0.5,0.1-0.7,0.3-0.7,0.6
		c-0.6-0.2-0.8-0.4-0.8-0.6v-0.2l1.4-3.5h-0.2l0.7-1.5l-0.2-0.2c0.3,0,0.5-0.6,0.5-1.6l0.2-0.2h-0.2l0.7-2.3l-0.2-0.2
		c0.2,0,0.6-0.7,1-2.2h0.1l-0.1-0.2v-0.2l0.5-0.8v-0.2l-0.2-0.2c0.3-0.3,0.5-1.3,0.6-3l-0.4-0.4l0.6-0.1l-0.2-0.2l0.2-1.3l-0.2-0.6
		l0.6-2H165l0.2-0.2v-0.2l-0.2-0.2l0.6-3.1h-0.2l0.3-0.6l-0.1-0.2l0.3-1.6h-0.2l0.6-2.2H166c0.3-1.5,0.5-3.6,0.5-6.5l0.2-0.2V381
		h-0.2l0.2-0.2v-0.2c0-3.1,0.7-8.6,2.1-16.3l-0.2-0.5l0.5-1.4l-0.1-0.2l0.1-0.2l-0.1-0.2c0.2,0,0.5-1,0.8-2.9h-0.2
		c0.6-4,1.3-6,1.9-6c0.6-1,1.3-1.6,2.1-1.6h0.2l0.2,0.2h0.2L174.2,351.4L174.2,351.4z M174.3,374.6l-0.2,2.2h0.2l-0.2,0.2v0.2
		l0.2,0.2l-0.4,0.6h0.2l-0.2,0.2v0.4l-0.2,4.5h-0.2l0.2,0.2v0.2l-0.6,3h0.2l-0.3,0.7l1.7,0.2l0.2-0.2v0.2l1-0.4l0.7,0.2
		C175.4,381.9,174.7,377.8,174.3,374.6L174.3,374.6L174.3,374.6z M232.8,356.6c1,0.1,1.5,0.2,1.5,0.5v0.2c0,0.3-0.6,0.6-1.6,0.8
		l-0.2-0.1h-0.4l-0.2,0.1h-0.1l-0.2-0.1l-0.2,0.1l-0.2-0.1c0,0.3-0.7,0.7-2.2,1.5c-1.1,0.6-1.9,1.4-2.3,2.3c-0.6,0-1.6,2.2-2.9,6.5
		c-0.3,0-0.4,1.6-0.5,4.7l-0.2,0.2h0.2l-0.2,0.1v0.4h0.2l-0.2,1.8v1.9h0.3l-0.1,0.2v0.4l0.1,0.2v0.1l-0.3,0.4l0.2,0.2v0.2l-0.4,0.4
		l0.2,0.1h0.2l-0.4,0.8l0.2,0.2l-0.2,0.9v1.9l0.2,0.2v0.2h-0.4l0.2,0.2v0.5l-0.2,0.2l0.2,0.2v0.4l-0.2,0.2v0.2l0.2,0.1h0.2l-0.2,0.2
		v0.4l0.2,0.2l-0.2,0.1v0.4l0.2,0.2l-0.2,0.2v0.2l0.2,0.2v0.2h-0.2l0.4,0.8l-0.4,0.4v0.1l0.4,0.6l-0.4,0.3v1.1l0.2,0.2v0.2h-0.2
		l0.4,1.3l-0.2,0.2v0.2l0.3,1.4l-0.1,0.2l0.3,3.3h-0.2l0.4,1.2l-0.2,0.2v0.2l0.2,0.5h-0.1l0.6,3.3h-0.2c0.3,0.4,0.6,1.6,0.9,3.5
		h-0.2l0.6,1.4l-0.2,0.2l0.2,0.2h-0.2l0.6,1.2h-0.1c0.4,1.2,1,2.2,2,2.9v0.1h0.2l1-0.3l0.2,0.2l2-1.3c0.8,0,1.2,0.1,1.2,0.4l0.6-0.2
		l0.8,0.4v-0.4l0.2,0.2h0.2l0.2-0.2h0.2v0.4h0.2l0.1-0.2l1.2,0.4l0.2-0.2c0,0.3,0.3,0.4,0.8,0.4c0,0.3,0.3,0.6,0.7,0.8l0.2,0.8
		c-0.9,0.3-1.7,0.6-2.1,1v-0.2l-1.1,0.7l-0.2-0.2h-0.2c-0.3,0.3-1,0.5-2.2,0.6v0.3h-0.2l-0.2-0.1l-1.6,0.3l-0.2-0.2h-0.2l-0.6,0.2
		l-0.2-0.2l-0.6,0.4l-2.1-0.5l-0.1,0.1h-0.2l-1.8-0.6l-0.2,0.2c-1.3-0.9-2.1-1.4-2.5-1.4c-0.1-0.5-0.6-0.9-1.5-1.2l-1.6-1.9
		l-1.6-3.8l-0.3-0.4l0.2-0.2v-0.1l-0.4-0.7l0.2-0.2v-0.2l-0.2-0.6h0.2l-0.4-0.6l0.2-0.2V404l-0.2-0.2v-0.2h0.2l-0.8-4.5h0.1
		l-0.3-1.6h0.2l-0.2-0.1v-1.1l-0.4-5.6l0.2-0.1l-0.2-0.9v-2l-0.2-0.2l0.2-0.5l-0.2-0.2v-0.2l0.2-0.6l-0.2-0.6h0.2v-1.2l0.2-0.2v-0.2
		h-0.2l0.2-0.2l-0.4-1.6l0.2-0.1v-3l0.2-0.2l-0.2-0.1l0.2-0.9v-5.4l0.2-0.2v-0.2h-0.2l0.2-0.5l0.2-3.5l0.2-0.2h-0.2
		c0.8-3,1.6-4.9,2-5.5h-0.2c0.6-1.7,1.2-2.6,1.8-3c0.9-1.2,2.2-2.2,4.2-3.1c2.4-0.9,4.5-1.4,6.3-1.4
		C230.6,355.5,231.8,356,232.8,356.6L232.8,356.6z M252.7,352.4l0.8,0.6l0.6-0.2v0.2c0.6,0.5,1.2,0.9,2,1.2l0.1-0.2l0.6,0.8l0.2-0.2
		h0.6c0,0.4,0.2,0.6,0.5,0.6c0,0.9,0.6,1.7,1.9,2.2c0.1,0.3,0.6,0.5,1.4,0.6c0,0.4,0.4,0.8,1.1,1.4l1.8,1.8c1,2.1,1.6,3.3,1.6,3.8
		v0.2l-0.2-0.2h-0.2L265,365v0.6l0.2,1.5l-0.2,0.2l0.2,0.9v0.5c0,1.3-0.2,3-0.6,5.1h0.3v0.2h-0.3l-0.2,0.5l0.2,0.2v2l0.1,0.2
		l-0.1,0.2v0.2l0.1,0.2v0.2h-0.1l0.1,0.2v0.2l-0.1,0.2v0.1l0.1,0.2l-0.1,0.2l0.1,0.2h-0.1l0.1,0.2v0.8c-0.3,2.6-0.6,3.9-0.8,3.9
		l0.2,0.2v0.3l-0.2,0.2l0.2,0.2l-0.2,1.7v0.7l0.2,0.2l-0.2,0.2v1.1l0.2,0.6l-0.2,0.8v1.6l-0.1,0.2v0.2h0.1l-0.1,0.1v1.9l-0.2,0.2
		l0.2,0.2v0.2l-0.2,0.1l0.2,0.2v0.7l-0.2,0.1l0.2,0.2v0.2l-0.2,0.7l0.2,0.2v0.2l-0.2,0.6l0.2,0.2v0.1l-0.2,0.6l0.2,0.2v0.2l-0.2,0.6
		h0.2l-0.2,0.1v0.7l0.2,0.2l-0.2,0.1v0.4l0.2,0.2v0.2h-0.4v0.5c0,0.8-0.1,1.3-0.4,1.3l0.2,0.1l-0.7,3.5l0.2,0.2l-0.6,0.8l0.1,0.6
		l-0.3,0.7l0.2,0.5c-0.2,0-0.6,0.7-1,2.2l-1.1,1.9l-0.1,0.2h-0.2l0.2,0.2v0.6c-0.8,0.4-1.2,0.9-1.2,1.7c-0.3,0-0.6,0.2-1,0.6
		l-2.1,1.1l-0.5-0.2l-0.6,0.2v-0.2l-0.8,0.4l-0.2-0.2h-0.2l-0.2,0.2H253v-0.2l-0.2,0.2h-0.1l-0.7-0.2v0.2l-0.1-0.2h-0.2l-0.2,0.2
		l-1.1-0.4v0.2c-2.1-0.5-3.6-1.3-4.4-2.3c0-0.3-0.2-0.4-0.6-0.4c0-0.4-0.3-0.8-0.8-1.4c-0.6-1.4-1.1-2.1-1.4-2.2l0.2-0.2v-1
		l-0.7-0.8l0.2-0.5c-0.3,0-0.9-2.4-1.8-7.4h0.2l-0.4-1.4l0.2-0.2v-0.2l-0.3-1.5l0.1-0.2H241l0.1-0.2l-0.1-2v-2.9l-0.2-0.1l0.2-0.2
		v-2.7l-0.2-1l0.2-0.2v-0.2l-0.2-0.6h0.2l-0.2-0.2v-0.5l0.2-0.6l-0.2-0.2v-0.2l0.2-0.2v-0.2l-0.2-0.6h0.2l-0.2-0.2v-3.1l-0.2-0.2
		l0.2-0.1v-0.2l-0.2-0.2l0.2-0.2l-0.2-0.8V374l0.2-0.6l-0.2-0.2V373l0.2-0.6v-0.3h-0.2l0.2-1.2v-2.5l0.2-0.2l-0.2-0.2l0.3-2.8H241
		l0.8-3.1l-0.2-0.2c0.3,0,0.9-1.5,1.8-4.2c1.1-2.1,2.4-3.7,4-4.7v0.2L252.7,352.4L252.7,352.4z M252.5,358.7c-0.6,0.8-1.6,2.5-2.5,5
		l0.2,0.2v0.4c-0.4,0.1-0.7,1.3-1.2,3.7l-0.5,3.1l0.1,0.2l-0.1,0.2h0.1l-0.3,1l0.2,0.2h-0.2l0.2,0.2l-0.2,1.7v1l0.2,0.2l-0.2,0.2
		v0.4l0.2,0.5l-0.4,1.9l0.2,0.2v1l-0.2,0.1v0.2h0.4l-0.2,0.9h0.2l-0.2,0.2v1.7c0,0.8,0.1,1.5,0.3,1.9l-0.1,0.6l0.1,0.5h-0.1l0.1,0.2
		v0.7l-0.1,0.2l0.3,0.6l-0.3,0.6l0.1,0.6l-0.1,0.2l0.1,0.8v0.9l-0.1,0.1l0.3,0.8l-0.2,0.2v0.9l0.2,0.2l-0.2,0.2v0.2l0.2,0.1
		l-0.2,0.2v0.2l0.2,0.6h-0.2l0.2,0.2v0.6l-0.2,0.1v0.2l0.4,0.4l-0.4,1l0.2,0.2v0.2l-0.2,0.8l0.2,1.2l-0.2,0.7l0.2,0.2h0.2l-0.2,0.6
		l0.2,0.8h-0.2l1.2,6.3c0.5,1.8,0.7,2.5,1,2.5l-0.2,0.1c0.4,1.6,0.7,2.3,1.1,2.3c1.6-0.6,3-2.3,4.2-5.2v-0.2l-0.2-0.2
		c0.2,0,0.7-1.4,1.6-4l0.8-3.9H258l0.2-0.2l0.2-4.5v-2.3l0.2-0.2l-0.2-0.2v-0.2l0.2-0.1l-0.2-0.2v-0.2l0.2-0.8h-0.2l0.2-0.2v-0.6
		l-0.2-0.2l0.3-0.5l-0.1-0.2l0.1-1.7v-1.9l-0.1-0.2l0.1-0.2v-2.6l-0.1-0.2l0.1-0.2v-0.6l-0.1-0.2l0.1-0.2V379l0.2-0.6l-0.2-0.8v-5.1
		l0.2-4.4h-0.2l0.2-0.2v0.1l-0.2-0.2v-0.2l0.2-0.2h-0.2l0.2-0.2l-0.3-3.7l0.1-0.1v-0.2l-0.5-1.8l0.2-0.2l-1.4-2.6l-2-1.6h-0.4
		c-0.6,0-1.4,0.6-2,1.6L252.5,358.7L252.5,358.7z M290,351.7v-0.2c0.6,0.1,1.3,0.6,2.2,1.3c0.8,0.4,1.5,0.8,1.8,1.3l0.5,0.2
		l-0.2,2.1c0,1,0.3,1.8,0.9,2.2l0.2,1.5h-0.2l0.4,1.6l-0.2,1l0.2,0.6l-0.2,0.2v0.2l0.2,0.6h-0.2l0.4,1.4h-0.2l0.2,0.2v0.1l-0.2,1
		l0.2,0.2l-0.6,8.8h0.2l-0.2,0.2v0.5l0.2,1.1l-0.2,0.1l0.2,1.2v1.2l0.2,0.2l-0.2,0.2v2.5l-0.2,0.2l0.2,0.5l-0.2,0.6l0.2,1.7v2.7
		l0.2,0.7l-0.4,1.4l0.4,0.8l-0.2,0.2v1.6l0.2,0.2l-0.2,0.1v5l0.2,0.6l-0.2,0.5l0.4,2.1l-0.2,0.6v0.8l0.2,0.2v0.2l-0.2,0.2h-0.2
		l0.2,0.2v1.5l0.5,1.9h0.2v-0.4h0.2l0.3,1.8h-0.1l0.1,0.1v0.2l-0.1,0.6h0.1l-0.1,0.6l0.1,0.8l-0.3,3.7l0.2,0.8
		c-0.6,0.8-1.1,1.2-1.8,1.2L294,416l-1,0.4h-0.4l-1-0.2l-0.6,0.2l-0.4-0.4l-0.1,0.2h-0.2c0-0.3-0.5-0.7-1.4-1.4
		c-0.3-0.6-0.5-1-0.7-1l0.4-1.2h-0.2l0.2-0.2v-2.3l0.2-0.2v-0.1h-0.2l0.2-0.2v-0.2l-0.2-1.1l0.2-0.6l-0.2-0.5l0.2-0.7h-0.2l0.2-0.2
		V405l-0.2-0.7l0.2-0.6v-0.2l-0.2-0.7l0.2-0.6v-0.2l-0.2-0.6l0.2-1.2v-3.2l0.2-0.6l-0.2-0.6v-1.8l0.2-0.2l-0.2-0.2v-0.2l0.2-5.5
		l-0.2-0.5l0.2-1v-1.9l-0.2-0.2l0.2-0.2v-0.1l-0.2-1.8l0.2-2.3v-6l-0.2-0.7c0.4-2.8,0.6-5.2,0.6-7.2h0.2l-0.2-0.8h-0.3
		c-0.4,1.4-0.6,2-0.9,2h-0.5l-0.2-0.2l-0.2,0.2h-0.2v-0.4l-0.2,0.2h-0.2l-1.4-0.2v0.2l-0.7-0.4l-0.1,0.2c0-0.3-0.4-0.4-1-0.4v-0.3
		l-0.2,0.1h-0.2l-2-1.7c-0.3,0-0.6-0.5-0.7-1.4l-0.5-0.4l-0.2,1.3v0.2l0.2,0.1l-0.2,0.2l0.2,0.8v0.4h-0.4v0.4h0.2l-0.2,1.2v1.2
		l-0.2,0.2l0.2,0.1l-0.2,0.9v0.4l0.2,1c-0.3,0.5-0.4,1-0.4,1.9v0.7l-0.2,0.2l0.2,0.1v0.8l-0.2,0.2v0.2h0.2l-0.2,0.6l0.2,0.6
		l-0.4,2.7l0.2,0.6l-0.2,0.1v0.2l0.2,0.2l-0.4,2.2l0.2,0.2v0.2l-0.3,1.4h0.1l-0.1,0.1v1.8l-0.2,0.2l0.2,0.2l-0.4,3.8l0.2,0.2v0.2
		l-0.4,2.1l0.2,0.5h-0.2l0.2,0.5l-0.2,0.9h0.2l-0.2,0.2v1.2l0.2,0.2c-0.3,0-0.6,4.3-0.8,13l-0.2,1.2h-0.2l0.2,0.2
		c-0.2,3.2-0.5,4.9-0.8,4.9v-0.2l-0.9,0.4l-0.2-0.2c0,0.3-0.1,0.5-0.3,0.5h-1.6l-0.2,0.2l-0.2-0.2h-0.2l-0.2,0.2c-1.9,0-3-0.6-3.8-2
		l0.6-9.2l0.2-0.2v-0.8l-0.2-0.6l0.2-0.8l0.4-6.3l-0.2-0.1l0.2-0.9v-3.8l0.2-1.2l-0.2-0.2h0.2l-0.2-0.2l0.2-2v-1.2l0.2-0.2l-0.2-0.1
		l0.4-3.9l-0.2-0.2v-0.2l0.6-4.7H271l0.3-3l-0.1-0.2v-0.2l0.3-1.8l-0.2-0.5l0.2-1.2l-0.2-0.6c0.2,0,0.4-0.2,0.6-0.6l-0.2-0.2
		l0.2-0.8V367l0.2-1.6l-0.2-0.1l0.5-6.6l-0.1-0.1l0.1-0.9v-2l-0.1-0.7l0.1-0.6v-1.2l0.2-0.2v-0.2l-0.2-0.1h-0.1l0.1-0.2V352
		l-0.1-0.2v-0.2l0.8-0.4l3.1,1.1h0.2l0.2-0.2h0.2c0,0.4,1.1,0.8,3.3,1.4c2.3,2.7,3.5,4.3,3.5,4.9h0.4l1.9-3.5l-0.2-0.2
		c0.3,0,0.9-0.8,2-2.5c0-0.5,0.2-0.8,0.6-1.2C288.7,351.3,289.4,351.5,290,351.7L290,351.7z M309.1,354.3l0.1,0.2h0.7l0.1-0.2
		l0.2,0.2h0.9l0.2-0.2l0.2,0.2h1.7l1.2,0.2l0.2-0.2l0.2,0.2v-0.2l1.5,0.5l0.2-0.2h0.2c3.3,1,5.2,1.7,5.4,1.9l0.2-0.2h0.4
		c0,0.4,0.7,0.8,2.2,1.4l1.4,0.8c0,0.5,0.3,0.6,0.7,0.6v0.2l-0.2,0.2v0.2c0.6,0,1.1,0.6,1.7,1.6l0.6,0.8l-0.2,0.2v0.2l0.5,1
		l-0.2,0.2c0.4,0,0.6,0.6,0.6,1.7v1.2c-1.6,2.2-2.5,3.2-3,3.2l-2.7,0.9c-0.5,0-1.2,0.5-2,1.5c-0.5,0-0.6,0.2-0.6,0.6l0.1,0.2
		c-1,0.6-2,1-2.8,1l-0.6-0.2l-0.6,0.2v-0.2l-1.2,0.5l-0.4-0.3l-0.8,0.2l-0.2-0.2l-0.4,0.3l-0.2-0.1h-0.2l-0.2,0.1l-0.1-0.1l-0.2,0.1
		V374l-0.2,0.1h-0.8l-0.2-0.1l-0.2,0.1h-0.4c-1.2-0.2-1.9-0.4-1.9-0.6l-0.2,0.2l-1.2-0.4l-0.2,0.7l0.2,0.1v1.1l-0.4,1.9v2.7
		l-0.2,0.1l0.2,0.2v0.2l-0.2,0.2v0.2l0.2,0.6h-0.2l0.2,0.2v0.2l-0.2,0.1l0.2,0.2v0.2l-0.2,0.2v0.2l0.2,0.6h-0.2l0.2,0.2v0.2
		l-0.2,1.6h-0.2l-0.1-0.6l0.1-0.2l-0.1-0.2l0.1-0.2l-0.1-0.2h0.1l-0.3-1h-0.2v1l0.2,0.2l-0.4,1.6h0.2l-0.2,0.2v0.2l0.2,0.1l-0.2,0.2
		v0.2l0.2,0.2v0.2l-0.2,0.6h0.2l-0.2,0.2l0.2,1.1v0.2L307,389l0.2,0.2v0.8l-0.2,0.2v0.2h0.2l-0.2,0.2v0.4l0.2,0.2v0.1H307l0.2,0.2
		v0.2l-0.4,2h0.2c-0.4,0.8-0.6,1.6-0.6,2.3v0.9l0.2,0.6l-0.2,0.5l0.2,0.2h0.2l-0.2,0.2v0.4l0.2,0.2l-0.2,0.2v0.3l0.4,1.6l-0.2,0.5
		h0.2l-0.2,0.2v1.4l0.2,0.2l-0.2,0.2v1l0.2,0.2l-0.2,0.2v0.1l0.2,1.8l-0.2,0.2v0.2l0.4,0.5l-0.4,1.1l0.4,0.3L307,409v0.2l0.2,0.2
		v0.2l-0.2,0.2l0.2,0.8v0.3l-0.2,0.9h0.2l-0.6,2l0.2,0.2v0.2V414h0.2c-0.1,0.9-0.6,1.4-1.5,1.4H304l-0.1,0.2h-0.1l-0.2-0.2v0.2
		c-1-0.1-1.9-0.6-2.9-1.2h-0.1v-0.2l0.1-0.2l-0.1-0.2l0.1-2.4V411l0.2-0.2l-0.2-0.2l0.2-1.7v-0.6l-0.2-0.8l0.2,0.2h0.2l-0.4-2.2h0.2
		l-0.2-0.2V405c0-1.9-0.1-2.8-0.3-2.8l0.2-0.6l-0.2-1.2h0.2l-0.4-0.6l0.4-0.7v-0.4h-0.2l0.2-1.2v-4l0.1-1.8h-0.1l0.1-0.2V391
		l-0.1-0.2l0.1-0.2v-0.8l-0.1-0.2l0.1-0.2v-1l-0.1-0.6l0.1-0.2v-0.2l-0.1-0.5l0.1-0.6h-0.1l0.1-0.2l-0.1-0.8v-7.8l-0.2-0.8l0.2-0.2
		h-0.2l0.2-0.2v-2.5c0-2.4,0.2-5,0.5-7.5h-0.2l0.2-0.2V365l-0.2,0.1l0.4-0.8l-0.2-0.2l0.4-3.1h-0.2l0.2-0.2v-0.6l-0.2-0.2l0.4-2
		l-0.2-0.2v-0.2c0-1.7,0.9-2.6,2.6-3l0.2-0.2h1.5l0.1,0.2h0.2v-0.2l0.2,0.2l0.8-0.2h1.9L309.1,354.3L309.1,354.3z M312.1,358.9
		l-0.2-0.2h-0.3c-0.8,0-1.6,0.3-2.1,0.8l0.2,0.2v0.2l-0.4,1h0.2l-0.4,1.2l0.4,0.4h-0.4v1l0.2,0.2l-0.2,0.2v0.2l0.2,0.1
		c-0.2,0.3-0.4,1.4-0.5,3l0.2,0.2l-0.2,0.1h-0.1l0.2,0.2v0.9l-0.2,0.6l0.2,0.7v0.1l-0.2,0.2v0.2l0.2,0.2l-0.2,0.2l0.2,0.1h0.8
		l0.2-0.1l0.1,0.1h0.2l0.6-0.1l0.2,0.1v-0.1l0.2,0.1h1.7l0.2-0.1h0.2v0.1l1-0.3v-0.2l0.2,0.2c1.6-1.1,3.3-2.1,5.4-3l1.3-0.8l0.1,0.2
		c0-0.2,0.4-0.6,1.2-1.2l0.8-2.2c-0.4-2.8-1.4-4.2-3-4.2V359l-0.2,0.2l-1.2-0.2l-0.8,0.2l-2.3-0.4v0.2l-1.9-0.4l-0.1,0.2h-0.4
		l-0.2-0.2L312.1,358.9L312.1,358.9z M344.5,351.4l0.2,0.1h0.8l0.2-0.1c0.9,0.3,1.4,0.8,1.4,1.7l-0.2,0.2l0.4,1.9l-0.4,0.2l0.8,4.3
		l-0.2,0.2v0.2l0.4,1.4l-0.2,0.1v0.2l0.6,1.9l-0.2,0.2v0.2l0.4,1.1h-0.2c0,0.6,0.2,0.9,0.5,0.9v0.2h-0.3l0.3,1h-0.2l0.8,3.3l0.2-0.2
		h0.2c1,1.6,1.6,3.1,1.6,5.1l-0.2,0.6c0.2,0,0.4,0.6,0.6,1.6h-0.2l0.6,2.6h-0.2l1.4,4.9c0,0.4,0.1,0.6,0.4,0.6v0.2l-0.2,0.1l1.2,3.7
		h0.2l-0.2,0.2v0.2l0.4,0.6l-0.2,0.2v0.2l0.4,0.3H355c0.1,1.1,0.5,2.2,1,3.3v0.2l-0.2,0.2l0.9,1.6c0.3,3.1,0.7,4.9,1.3,5.4l-0.2,0.2
		v0.6h0.4v0.4l1.2,4.9l-0.2,0.2h0.4l-0.2,0.6l0.7,1.7l-0.4,1.3h0.2c-0.1,0.4-0.8,0.9-2.2,1.7l-0.2,0.6l-0.2-0.2H357
		c-0.3,0.5-0.6,0.7-0.8,0.8l-0.2-0.2c-1,0.7-2,1.3-3,1.6l-0.6-0.2l0.2-0.2v-0.1l-0.4-0.4h0.2l-0.4-1.4h0.2l-1.2-5.3h0.2
		c-1.2-5.9-1.9-8.8-2-8.9l0.1-0.2c-0.2-1.5-0.4-2.2-0.6-2.2l0.2-0.2l-1-4.9h0.2c-0.2-0.6-0.4-0.8-0.6-0.8h-0.2l-0.1,0.2l-0.2-0.2
		h-0.4l-1.2,0.2l-0.2-0.2l-0.2,0.2v-0.2l-0.1,0.2h-0.2l-0.2-0.2l-0.2,0.2h-0.2l-1-0.2l-0.2,0.2l-0.2-0.2l-0.4,1.8h0.2l-0.3,1.8h0.1
		c-0.2,0.6-0.3,1.6-0.3,3v0.2l0.2,0.2l-0.2,0.2v1.2c0,0.8-0.8,3.5-2.3,8l0.1,0.2v0.2c-0.2,0.2-0.5,1.2-0.9,3c-0.2,0-0.5,0.8-0.9,2.3
		c-0.8,0.9-1.7,1.6-2.4,1.9l-0.2-0.2l-1.9,1.3l-0.2-0.1l-1.7,1v-0.2c-0.5,0.1-0.7,0.3-0.7,0.6c-0.6-0.2-0.8-0.4-0.8-0.6v-0.2
		l1.4-3.5h-0.2l0.7-1.5l-0.2-0.2c0.3,0,0.5-0.6,0.5-1.6l0.2-0.2h-0.2l0.7-2.3l-0.2-0.2c0.2,0,0.6-0.7,1-2.2h0.1l-0.1-0.2v-0.2
		l0.5-0.8v-0.2l-0.2-0.2c0.3-0.3,0.5-1.3,0.6-3l-0.4-0.4l0.6-0.1l-0.2-0.2l0.2-1.3l-0.2-0.6l0.6-2h-0.2l0.2-0.2v-0.2l-0.2-0.2
		l0.6-3.1h-0.2l0.3-0.6l-0.1-0.2l0.3-1.6H336l0.6-2.2h-0.2c0.3-1.5,0.5-3.6,0.5-6.5l0.2-0.2v-0.2h-0.2l0.2-0.2v-0.2
		c0-3.1,0.7-8.6,2.1-16.3l-0.2-0.5l0.5-1.4l-0.1-0.2l0.1-0.2l-0.1-0.2c0.2,0,0.5-1,0.8-2.9h-0.2c0.6-4,1.3-6,1.9-6
		c0.6-1,1.3-1.6,2.1-1.6h0.2l0.2,0.2L344.5,351.4L344.5,351.4z M344.7,374.6l-0.2,2.2h0.2l-0.2,0.2v0.2l0.2,0.2l-0.4,0.6h0.2
		l-0.2,0.2v0.4l-0.2,4.5h-0.2l0.2,0.2v0.2l-0.6,3h0.2l-0.3,0.7l1.7,0.2l0.2-0.2v0.2l1-0.4l0.7,0.2
		C345.8,381.9,345.1,377.8,344.7,374.6L344.7,374.6L344.7,374.6z M387,353.3l0.2-0.2h0.2c0,0.4,0.3,0.6,0.8,0.8l0.2-0.2
		c0,0.3,0.2,0.5,0.6,0.7l-0.5,2.8l0.1,0.2l-0.1,0.2h0.1c0,0.3-0.2,0.5-0.5,0.5v0.4h0.4v0.2c-0.4,0.5-0.6,1.1-0.6,1.8h-0.3v0.2
		c0,3.8-0.4,7-1.1,9.7l-0.6,2.3l0.2,0.2v0.2l-0.2,0.2v0.1l0.2,0.9l-0.2,0.1h0.2l-0.3,0.6l0.1,0.2v0.2l-0.1,0.6l0.1,0.1v0.2l-0.3,1
		l0.2,0.2v0.2l-0.2,0.2v0.2l0.2,0.6l-0.2,0.7h0.2l-0.6,2l0.2,0.8l-0.4,1.9c0.1,0.7,0.3,1.1,0.4,1.1c-0.3,1.9-0.6,2.8-0.8,2.8l0.2,1
		l-0.2,1.4l0.2,0.2v0.2l-0.4,1v0.2l0.2,1.6l-0.4,1h0.2l-0.4,1.5h0.2l-0.2,0.6c0,1.8-0.2,2.9-0.5,3.5l0.2,0.2v0.2l-0.2,0.8l0.2,0.2
		l-0.2,0.8v0.8c-0.4,0-0.6,0.6-0.6,2h-0.2l0.2,0.6l-0.2,0.2v0.2l0.2,0.2l-0.2,1.2v0.6l0.2,0.7l-0.4,1.5h0.2l-0.2,0.2v0.2l0.2,1
		l-0.4,1l0.4,0.6l-0.2,0.5l0.2,0.6c-0.3,0-0.4,0.3-0.4,0.8h-0.1l-0.2-0.2c-1.4,0.2-2.1,0.4-2.1,0.6l-0.1-0.2h-0.4l-0.2,0.2h-0.2
		l-0.3-0.4l-0.2,0.2c-1.4-0.5-2.1-1-2.1-1.8c-0.3-0.1-0.6-1.1-1.1-3l0.1-0.2l-1.7-8.2l0.2-0.2l-0.4-1.1h0.2l-0.6-1.9h0.2l-0.4-1
		l0.2-0.2V397l-0.5-2l0.1-0.2c-0.2,0-0.5-1.6-0.9-4.5h0.1l-0.3-1l0.2-0.7l-0.2-1h0.3c0,1.9-0.1,2.9-0.4,2.9l0.2,0.2
		c-0.1,0.8-0.2,1.2-0.4,1.2l0.2,0.1v0.2l-0.2,0.2v0.2h0.2l-0.4,1.6l0.2,0.2h-0.2l0.2,0.2v0.1l-0.2,0.2l0.2,0.2l-0.6,2.5l0.4,0.6
		l-0.6,1.9l0.2,0.5l-0.3,0.7l0.1,0.1l-0.5,3.3l0.2,0.2v0.2l-0.4,0.9l0.2,0.2h0.2l-0.2,0.2l0.2,0.9l-0.6,2.9l0.2,0.2l-0.5,2.5
		l0.2,0.6v0.4l-0.2,0.2l0.3,0.6c-0.6,0.8-1.4,1.2-2,1.2l-0.8-0.2l-1.2,0.4c-0.3-0.2-1.2-0.4-2.7-0.5c0-0.4-0.2-0.6-0.5-0.6l-0.9-1.4
		l0.7-8.8l-0.2-0.2l0.2-0.1h-0.2l0.2-0.2v-1.7l0.2-0.9h-0.2l0.4-0.8l-0.2-0.2l0.5-5.3h0.1l0.5-3.3l-0.2-0.2l0.6-5l-0.1-0.2l0.5-4.1
		l-0.2-0.1l0.7-5.8H365l0.8-5.5l-0.2-0.2V371l0.2-0.1V370h-0.2l1.1-9.9h-0.2l0.2-0.2v-2.3l0.1-0.2l-0.1-0.2V357l0.5-4.3l0.4-0.4
		l0.5,0.4l0.2-0.2h0.6c0.3,0.4,0.8,0.6,1.5,0.6v0.3c0.8,0,1.2,0.2,1.2,0.6l0.2-0.2l2.9,1.4c0.6,0.5,1.2,2.1,1.9,4.9h-0.2l0.4,0.6
		h-0.2l1.2,6.1h-0.2l0.7,3.7h-0.2l0.4,1l-0.2,0.2v0.2c0.4,2.2,0.6,3.6,0.8,3.9l-0.2,0.1v0.2l0.2,0.2l-0.2,0.8v0.7l0.2,0.2l-0.2,0.5
		l0.4,2.9h-0.2l0.2,1.3h0.2l0.2-2v-1l0.1-0.2v-0.2h-0.1l0.1-0.1v-0.7l-0.1-0.2V378h0.1l-0.1-0.1v-0.2l0.1-1.2h-0.1l0.3-2.1l-0.2-0.5
		c0.3,0,0.4-0.2,0.4-0.6l0.2-3.5H380l0.8-6.2h-0.2l0.7-5.9l0.2-0.2h-0.2l0.4-1.8l-0.2-0.5l0.2-0.6l-0.2-0.8l0.2-1.6l-0.2-0.5
		l0.2-0.2h-0.2c0.1-0.8,0.3-1.2,0.6-1.2C385.3,352.1,386.9,352.9,387,353.3L387,353.3z M413.6,349.3c2.7,0.8,4.1,1.7,4.1,2.3
		l0.8-0.2c0,0.8,0.4,1.2,1,1.2l0.2,1.6l-0.4,0.6h0.2l-0.7,1.9l0.2,0.2v0.2l-0.6,0.1l0.2,0.2v0.2l-0.4,0.6v0.3l0.2,0.2v0.2
		c-0.6,0-1.8,2.6-3.3,7.8h0.2l-2.1,3.8c0,0.5-0.4,1.5-1.1,3h0.3v0.2l-0.2,0.2v0.2l0.4,0.3h-0.2l0.2,0.2v1.5l-0.2,0.1v0.2h0.2
		l-0.2,0.2v0.2l0.4,0.3l-0.2,0.2v0.2l0.2,0.7h-0.2l0.2,0.1v0.2l-0.2,0.7h0.2l-0.2,0.5l0.2,0.2v0.2l-0.2,0.2c0.1,1.4,0.3,2,0.5,2
		l-0.1,0.7l0.3,1.9h-0.2l0.6,1.9l-0.2,0.2v0.2l0.2,0.2v0.2h-0.2l0.2,0.2v0.2l-0.2,0.6l0.2,0.2l-0.2,0.2l0.2,0.2h-0.2l0.2,0.1v0.2
		l-0.2,0.6h0.2l-0.2,0.5l0.4,2.5h-0.2l0.2,0.2v0.6l-0.2,0.2l0.2,0.2v0.2l-0.2,4.1h-0.2l0.2,0.1v0.2l-0.4,0.4l0.2,0.2v0.3l-0.2,0.2
		v0.2l0.2,0.2h-0.2l0.2,0.2v0.2l-0.2,0.2l0.2,0.8v0.5l-0.2,0.6l0.2,0.8v1.8l-0.2,0.2l0.2,0.1v2.1l0.2,0.2l-0.2,0.2v0.8l0.2,1.6
		l-0.2,0.2v0.1l0.2,0.2v0.2c-0.1,0.6-0.2,1-0.4,1l0.2,0.2v0.4l-0.2,0.2v0.2l0.2,0.1l-0.2,0.2l0.2,0.2h-0.2l0.6,2.7l-1,0.4l0.2,0.5
		c0,1-0.5,1.6-1.4,1.6l-0.2-0.2h-0.2l-0.6,0.2l-0.2-0.2l-0.8,0.4l-0.7-0.2v0.2l-1.4-0.6l-0.2,0.2l-1.5-1.8l-0.2-9.1l-0.2-0.2h0.4
		l-0.2-0.8v-0.2l0.2-1.2h-0.2l0.2-0.2v-0.3l-0.2-0.7l0.2-0.5l-0.2-0.9l0.2-1l-0.2-1.9h0.2l-0.2-0.6l0.2-1.2l-0.2-0.1l0.4-1.8
		l-0.2-0.8v-3l0.2-0.6l-0.4-0.6l0.2-0.2v-2.2l-0.2-0.2l0.2-0.5v-0.3h-0.2l0.2-1.2v-2l-0.2-0.9l0.2-0.1c-0.3,0-0.4-0.2-0.4-0.6
		l0.2-0.2v-0.2l-0.2-0.6l0.2-0.2l-0.4-1.4l0.2-0.2l-0.5-2.6l0.1-0.7l-0.1-0.2v-0.1l0.1-0.6l-0.3-1.2l0.2-0.2v-0.2
		c-0.2-0.8-0.5-1.2-0.7-1.2v-0.3l0.2,0.2h0.2c-0.4-1-1.2-2.1-2.3-3.3l-2.7-4.4l0.2-0.2c-0.5-0.4-1.1-1.3-1.9-2.8
		c-0.2,0-0.3-0.3-0.3-0.9c-0.7-0.6-1.9-2.8-3.3-6.6l-0.6-0.8l0.1-0.2v-0.2l-0.1,0.2h-0.4v-0.4c-0.3,0-0.6-0.4-0.9-1.2v-0.1
		c0.1-0.6,0.3-1,0.6-1l0.2,0.2v-0.2c1,0.1,1.5,0.3,1.5,0.5l0.2-0.2h0.2l3.9,1.9c0,0.3,0.2,0.5,0.6,0.5v-0.2c0.5,0.3,0.9,0.6,1.2,1.1
		l-0.2,0.1v0.2c0.4,0,0.7,0.7,1,2.1c0.4,0,0.6,0.1,0.6,0.3h-0.2l2.9,5.7l0.2,0.2c0.2,0.2,0.3,0.5,0.3,0.8c0.2,0,0.6,0.6,1.1,1.6h0.3
		v0.2l-0.2,0.2v0.2l0.2,0.2h0.2c0.9-2.1,1.8-4.5,2.3-7.1c1.2-2.2,2.2-4.6,3-7.3c0.4-0.3,0.8-1.1,1.3-2.3h0.4v-0.3L413.6,349.3z
		 M329.3,332.7c-0.1,0.5,0.7,0.3,0.8,0.4C329.8,332.3,329.1,332.8,329.3,332.7z M327.2,324.8l0.3,0.1l-0.9-1.1L327.2,324.8z
		 M326.1,317.5c-0.5,0.5-0.3,1.1-0.1,1.9c0.3,0.7,0.7,1.5,0.5,2.2l-0.3,0.3l1.1,0.4C326.9,320.6,326,318.7,326.1,317.5L326.1,317.5z
		 M327.9,313.1c-0.4,0.4-0.7-0.8,0.1,1c0.1-0.1,0.1-0.2,0.1-0.2C328,313.7,327.9,313.4,327.9,313.1z M328,313.8
		C328.2,314.6,328.3,313.2,328,313.8z M326.8,310.4l0.7,0.9c0.2-0.3,0-1.3,0.3-1C327.3,309.3,327,309.6,326.8,310.4z M325.6,309.6
		l0.3,0.5C326,310,326,309.8,325.6,309.6z M326.6,311.1l-0.7-1c-0.2,0.2-0.5,0.3,0.3,0.5C325.8,310.6,326.2,310.7,326.6,311.1
		L326.6,311.1z M326.6,311.9c-0.1,0.7-0.1,1.4-0.8,0.5C326.5,314.2,327.3,313.7,326.6,311.9z M324.8,317.4l-0.2,0.8l0.5,0.6
		C324.9,318.6,325.2,317.3,324.8,317.4L324.8,317.4z M325.3,303.9c-0.3,0.1-0.5,0.6-0.8,0.8l0.5,0.7
		C325.1,304.8,325,304,325.3,303.9z M324.5,304.6c0,0-0.2-0.2-0.4-0.5l-0.4-0.4C324,304.7,324.3,304.8,324.5,304.6z M324.3,309.9
		l1.4,1.6l-0.8-1C324.7,310.3,324.5,310,324.3,309.9l-0.2-0.4c0,0,0.1,0.1,0.1,0.2C324.3,309.8,324.3,309.9,324.3,309.9L324.3,309.9
		z M323.7,299.7l0.8,0.4C324.5,300.1,324.2,299.9,323.7,299.7c-0.2-0.2-0.6-0.4-0.6-0.4L323.7,299.7L323.7,299.7z M322.3,297.1
		c0.7,0.2,0.5-1,1-0.7c-0.4-0.7-1.1-1.1-1.8-1.5C322,295.4,322.3,296.1,322.3,297.1z M320.6,294.4c0.3,0.2,0.7,0.4,1,0.7
		C321.3,294.6,321,294.5,320.6,294.4z M323.1,301.9c0.1-0.2,0.4-0.5,0.4-1.1l-0.5,0.7C322.9,301.6,323,301.7,323.1,301.9
		L323.1,301.9z M322.8,301.5c-0.2-0.5-0.3-0.8-0.3-1C322.6,300.7,322.7,300.9,322.8,301.5z M323.1,302
		C323.1,301.9,323.1,301.9,323.1,302C323,302,322.9,302,323.1,302z M324,306.9c-0.6-0.5-1.5-1.7-1.7-0.2
		C322.9,307,323.1,306.1,324,306.9z M322.4,302.9l0.3,1.2c0.2-0.1,0.4-0.4,0.7-0.2L322.4,302.9z M322,302.5l0.4,0.4l-0.1-0.4H322z
		 M321,296.5c-0.3-0.2-0.4-0.4-0.7-0.7c-0.2-0.2-0.4-0.5-0.5-0.8c0.1,0.3,0.2,0.7,0.4,1l0.4,1C320.8,297,321.2,297.2,321,296.5
		L321,296.5z M321.8,298.9C321.7,298.9,321.7,298.9,321.8,298.9C321.7,298.9,321.7,299,321.8,298.9z M316.7,289.6l-0.1,0.2
		C316.7,289.8,316.7,289.7,316.7,289.6L316.7,289.6L316.7,289.6z M320.5,297.3c0.1,0.5,0.4,0.8,0.8,0.9c-0.2-0.3-0.5-0.7-0.7-1.1
		C320.4,297.1,320.4,297.1,320.5,297.3L320.5,297.3z M319.4,292.9l0.1,1C319.6,293.5,319.6,292.9,319.4,292.9z M321.8,298.6
		C322,298.5,321.9,298.5,321.8,298.6z M321.8,298.6c-0.2-0.2-0.5-0.3-0.7-0.4c0.2,0.3,0.4,0.5,0.6,0.7L321.8,298.6z M311.6,290.4
		c0.7-0.3,1.9,0.5,1.9,1.9c1,0.7,2.6-1.1,3.1-2.6c-0.3,0.1-0.5,0.3-1.5-0.5c-0.1,0.6,0.7,2.7-0.4,2.2c-1.1-1.1-0.5-1.3-0.5-2.1
		c-0.2,0.5-0.7,0.3-1.3,0c-0.6-0.2-1.3-0.5-1.7,0l0.6,0.4c0.3,0.2,0.5,0.4,0.5,0.4C312.1,290.3,311.6,290.1,311.6,290.4L311.6,290.4
		z M317.6,291.6l0.2,0.2l0.2,0.2c-0.2-0.5-0.2-1-0.1-2c-0.8-0.5-1-0.5-1.3-0.5l1.2,2.2L317.6,291.6L317.6,291.6z M319.1,294
		c-0.9,0-1.7-0.9-2.1,0.2c0.8,1.3,1,0.6,1.7,1.2C317.4,293.4,319.4,295.7,319.1,294c0.3,0.4,0.5,0.8,0.8,1.1
		c-0.1-0.4-0.2-0.8-0.3-1.3v0.1c-0.1,0.2-0.1,0.2-0.1,0.1c0,0-0.1,0-0.1-0.1C319.2,294,319.2,294,319.1,294
		c-0.2-0.7,0.1-0.2,0.3-0.1c0.1,0,0.1,0,0.1-0.1l-1.5-1.9C318.1,292.6,318.4,293.1,319.1,294L319.1,294z M320.4,306.1
		c0.1-0.1,0.1-0.1,0.2-0.1C320.4,305.8,320.4,305.8,320.4,306.1z M320.5,305c0.2,0.1,0.5,0.2,0.7,0.7c-0.1,0.5-0.3,0.1-0.5,0.2
		c0.3,0.2,0.9,0.9,0.9-0.2l-0.2-0.1c-0.1-1,0.3-2.4,0.5-2.2C321.2,303.8,320.9,304.2,320.5,305L320.5,305z M319.8,299.6l-1.2-1.6
		l-0.2,1.2l0.3-0.2C319.1,299.9,319.4,299.6,319.8,299.6L319.8,299.6z M316.8,289.2l0.9-0.2l-1.6-0.4L316.8,289.2z M315.3,287
		l0.7-0.3l-0.7-0.3V287z M191.2,249.3l-0.5,0.3C190.9,249.4,191.1,249.3,191.2,249.3z M194.9,248.6l0.1-0.4
		C194.8,248.4,194.8,248.6,194.9,248.6z M267.8,248.5c-0.5-0.9-1-2.2-1.2-1.5l-0.1,0.8C267.1,247.9,267.5,248.1,267.8,248.5
		L267.8,248.5z M226.6,243c0.1,0.1,0.2,0.2,0.2,0.3c0.2-0.3,0.4-0.5,0.6-0.7C227.1,242.8,226.9,242.8,226.6,243z M225.9,246.2
		l-1-0.5C225,245.8,225.4,246,225.9,246.2z M171.4,256.1l-0.3,1C172,256.7,171.5,256.4,171.4,256.1z M298.1,267.7
		c-0.3-0.7-0.7-1.2-1.1-1.6C297.4,267.1,297.5,268.1,298.1,267.7z M191.1,241.1c-0.3,0.2-0.4,0.4-0.4,0.5
		C191,241.5,191.2,241.3,191.1,241.1z M295.4,264.8c0.1,0.2,0.1,0.3,0.2,0.4c0.5,0.2,1,0.5,1.4,1c-0.2-0.3-0.3-0.7-0.6-0.9
		C296.2,265,295.8,264.9,295.4,264.8z M118.1,305.9c-0.1,0.1-0.1,0.1-0.2,0.1C118.1,306.1,118.1,306,118.1,305.9z M105.5,326.2
		c0-0.2,0-0.7,0.1-1C105.4,325.3,105.3,325.6,105.5,326.2z M309.5,278.6C309.9,279,309.6,278.6,309.5,278.6z M308.8,282.5
		c-0.2-0.1-0.3-0.1-0.4,0.1C308.5,282.5,308.7,282.5,308.8,282.5z M309.8,279.4c-0.1-0.2-0.2-0.4-0.3-0.7
		C309.5,278.9,309.6,279.1,309.8,279.4z M310,279.1c0.1,0.2,0.2,0.3,0.3,0.4C310.4,279.5,310.4,279.4,310,279.1z M309,278
		c0.2,0.2,0.4,0.5,0.5,0.7c-0.1-0.1,0-0.2,0-0.2C309.4,278.5,309.2,278.3,309,278z M140,272.2L140,272.2
		C139.7,272.8,139.8,272.6,140,272.2z M250.6,251.3c1-0.7,1.4-0.5,1.9-0.1l0.1-2.2l-1,1.2L250.6,251.3L250.6,251.3z M182.4,251.7
		l1.4,0.3c-1.1,1.5-2.2,1.4-0.9,2.1c-0.3-1.2,0.9-1.6,2.1-2c1.1-0.4,2.2-0.7,2.1-1.9l0.9,0.3c-0.2,0.1-0.2,0.2-0.5,0.2
		c1.9,0.8,0.8-2,2.8-2.1c0.8,0.1,1.4,0.3,0.9,0.7l1.5-0.9c0.5-0.1,0.4,0.4-0.1,0.4l2.4-0.7v0.1c0.3-0.4,1-1.1,1.4-1.5
		c0.7,0.3-0.3,0.3-0.1,0.6l1.3-0.8c0.7,0.5-0.4,1.3-1.4,1.4c1.7,2.2,1-0.8,3.9,0.2l-1.3,0.5c1,1.3,2,0.5,3.4,1.3
		c-0.2-0.2-1-0.7-1.6-1.1c-0.5-0.5-0.9-1-0.2-1.4c0.4,0.1,1,0.2,1.7-0.4c0.1,0.9,0.9,0.5,1.9,0.4l0.1,1.1c1-0.4,0.9-1,1.5-1.6
		c1.2,0,1.5,0.9,1.9,1.6c1.9,0.1-1.4-1.3,0.8-1.7c0.8,0.2,1.5,0.1,2.2-0.1c0.4-0.1,0.7-0.2,1.1-0.4c0.4-0.2,0.8-0.3,1.3-0.5
		c1.1,0.4-0.2,0.7,0.2,1l1-0.9c0.2,0,0.2,0.3,0.1,0.4c0.8-0.4,0.1-1.1,1.4-1.5c0.2-0.6,0.9-0.2,1.7,0.2c0.8,0.4,1.9,0.9,2.6,0.2
		c0.4,0.3-0.2,0.7-0.1,1.1c1.1-0.4,1.6-0.6,2.1-0.8c0.5-0.2,0.8-0.4,1.8-1l1.5,0.9c-1.1-0.9,0.4-1.9,1.8-2.5c-0.4-0.4-0.7-0.8-0.9-1
		l2.2-0.5c0.2,0.2,0,0.6-0.4,1c0.2-0.1,0.3-0.2,0.4-0.3c0.7,0.5,0.3,1.1-0.3,1.7c-0.2-0.2-0.5-0.5-0.7-0.8c-0.6,0.7-1.1,1.4-1,2.1
		c0.2-0.1,0.4-0.2,0.7-0.3c-0.2,0.2-0.3,0.3-0.2,0.4c0.1,0.1,0.3-0.1,0.7-0.4l0.4,1.3l0.2-0.5l0.4,0.2c0.2,0.1,0.5,0.2,0.9,0.4
		c0.7,0.3,1.3,0.5,1.3,0.5c1-0.5,2-1.2,3.1-1.8c1.1-0.5,2.3-0.9,3.9-1c-0.9,0.8-0.4,1.5-0.6,2.5c-0.7-1.3-2.4,0.1-3.9-0.3
		c0.8,0.2,0.5,0.7,0.3,0.9l2.8-0.7c-0.2,0.9,0.5,0.8,1.1,1.3c-0.1-0.9,0.4-1.1,1.2-1.1s1.7,0.2,2.2,0.1c-0.1,0.6-0.4,1.1-1.8,0.8
		c1.3,1.6,2.2-1.7,3.6-0.3c-0.3-0.1-0.5-0.2-0.7,0.1c0.4-0.2,1.1-0.1,1.6,0.1c0.5,0.2,0.8,0.5,0.5,0.7l-0.3-0.1
		c1.1,0.4,2.7,0.8,4.2,0.9c0.8,0.1,1.5,0.1,2,0c0.5-0.1,1-0.3,1.1-0.6c-0.1,0.2-0.8,1.7-1,1.9c0,0,1.3-0.9,2.6-1.9
		c0.7-0.5,1.4-0.9,1.9-1.3c0.5-0.3,0.9-0.5,0.9-0.5c-0.7,1.1-0.3,4.4-2.2,4.5c0.5,0.3,1,0.8,2.2,0.7c-0.3-0.3-0.3-2.1,0.2-2
		c0.9,1.8,0.7,1,1.9,2.6c-0.4-0.4,0.8-2.2,1.6-1.9c-0.2,0.2-0.6,1.9-1,2l0.4-0.2c0.3-0.1,0.6-0.2,0.9-0.4c0.7-0.3,1.4-0.5,1.4-0.5
		c-0.7,0.2-0.7,1.6-0.4,2.2c-0.1-0.4,1.7,0.7,2.2,0.7l-0.7-0.8c1.1,0.5,1.9,0.2,2.7-0.3c0.8-0.4,1.7-0.9,2.7-0.3
		c-0.4,0.3-1.7,2-0.7,2.7c0.9-0.8,4.3-3.3,6.6-3l0.1,0.7c0,0,0.5,0.1,0.9,0.1c0.4,0.1,0.9,0.1,0.9,0.1c-0.8,0.4-2.2,1-3.7,1.6
		s-2.8,1.1-3.8,1.4c0.7,0.8-0.1,0.8,1.2,1.3c0.2,0.7-1,0.4-1.4,0.3l2.6,1.7c0.2-0.5,0.9-0.6,1.6-0.5s1.3,0.1,1.5-0.4
		c0,0-0.2-0.1-0.5-0.1c-0.3,0-0.8-0.1-1.3-0.2c-0.9-0.1-1.9-0.2-1.9-0.2c0.4-1.1,3.2-2.2,5.2-0.9c0.3,0.7-1.4,1.7-1.5,2.1
		c0.4-0.2,2.2,0.3,2.2,0.7l-1.1,0.1c0.4,0.5,1.1,0.4,1.7,0.4c0.7,0,1.3,0.1,1.6,1c0.4,0.3,0.5,2.1,1,1.6c0-1.6,2-5.2,2.9-5.8
		c0.1,0.1,0.5,0.8,1,1.5c0.4,0.7,0.9,1.6,1,2.1c0.2,1.4-2.4,1.4-2.2,2.5c0.2-0.3,0.8-0.3,1-0.3c0.3,0.5-0.8,0.7,0.3,1.3
		c0.8-0.9,2,1.4,1-0.5c0.6,0.2,0.8,0.4,1,0.7s0.4,0.6,1,1c0.1-0.9,2.5-1.4,3.7-1c-0.2,0.2-0.3,0.7-0.3,0.9c1,0.8,1.6,1.5,2.2,2.2
		c0.7,0.7,1.3,1.4,2.1,2.1c0,0.3,0.5,1.4-0.1,1.4c0.4,0.1,0.9-0.1,1.4,0.4c0.3,1.7-1.3-0.9-1.3,0.7c0.5-0.5,2,0.4,3,0.8
		c0.5-1-1.6-1.7-2.5-2c1-1.1,3.2-1.2,5.5-0.1c1.6,1.1-0.1,1.3,0.3,1.4c1.2,1.4,2.2,1.4,3.1,1.5c0.9,0.1,1.6,0.3,2.2,1.7
		c0.1,1.5-1.4,1.3-1.7,2c-1.4-0.9-1.2-2.2-2-2.8c0,0,0.2,0.3,0.3,0.6c0.2,0.3,0.3,0.7,0.3,0.7c-0.5-0.2-1.5-0.7-1.7-1.3
		c0,0.3,0.3,0.8,0.7,1.3c0.4,0.5,0.9,1.1,1.5,1.8c0.6,0.7,1.2,1.3,1.7,2c0.5,0.7,1,1.4,1.3,2.1c0.5,0.2,1.4,0.6,1.4,0.1l-0.7-0.6
		c0.1-1.1,1.9,0.6,1.5-0.5c0.6,0.3,1.3,0.5,1.9,1c0.6,0.4,1.1,1,1.5,1.7l-0.7,0.9c0.2-0.2-0.2-1.3-0.7-1.4c0.8,0.3,0.4,2.8,2,2.6
		l-0.1-1.4c1.2,0.6,2.8,1.3,3.4,2.6c0.5-1.2-0.3-0.2,0.1-1.9c-0.4,0.8-0.9,0-1.4-0.7c-0.5-0.8-1-1.4-1.3-0.3
		c0.5-1.7-0.7-1.9-0.6-3.7c-0.3,0.3-0.2,0.8-0.9-0.3h-0.4c0-0.1,0-0.1-0.1-0.1v0.1c-0.1,0-0.1,0,0,0.1c0.1,0.3,0.1,0.7,0,0.9
		c-1,0-2.2-1.5-3-1.8c-0.4-0.7,0.5-0.1,0.5-0.6l-1.1-0.4c0.5-0.6-0.3-2.3,1.2-1.4c0,0-0.3-0.3-0.5-0.6c-0.3-0.3-0.5-0.6-0.5-0.6
		c-0.3-1-1.1-2.1-1.9-2.4c-0.4-0.7-2-0.8-1-0.7l-2.2-1.4l0.1-0.2c-0.4-0.4-0.9-0.8-1.5-1.2c-0.5-0.4-1.1-0.7-1.7-1.1
		c-1.1-0.8-2.1-1.7-2.7-3c-0.8-0.4-1.6-0.7-2.5-1.7l0.2-0.7c-1-0.5-2.2-2.4-2.9-2.2c0.1-0.5-0.2-1-0.6-1.5c-0.4-0.4-0.9-0.9-1.6-1.2
		c-1.3-0.7-2.6-1.3-3.3-2l-0.5,0.7c-1.1-0.8-2.2-1.1-3.8-1.7l-0.3,0.8c-1.5-0.2-2.7-2.2-4.7-3.1c0.3-0.2,0.7,0.1,1,0.5
		c-0.4-0.7-0.9-1.1-1.5-1.5c-0.6-0.3-1.3-0.4-2-0.5c-1.4-0.2-2.7-0.4-3.4-1.5c-0.7,0.1-1-0.2-1.3-0.6h0.2c-0.1-0.1-0.1-0.1-0.2-0.1
		l-0.6-0.7c0.2,0.3,0.3,0.5,0.5,0.7c-0.4-0.2-1.1-0.3-1.8-0.4l0.1-0.9l-0.2-0.1c-0.5-0.5-0.7,0.2-0.5,0.9c-0.4,0-0.7,0.1-1,0.1
		c0-1.5-1.8-0.2-2-1.9c-0.7,0.5-3.3-0.7-4.1,0.7c0.1-0.2-0.1-0.3,0.2-0.2c-0.7-0.4-1.3-0.8-2.1-0.6l0.1-1.1l-2,0.9
		c-0.4-0.5-0.7-0.8-0.7-1.1c0-0.3,0.2-0.5,0.8-0.8c-2.6,0.5-2-0.1-4.2,0.6l0.3-0.7c-0.7-0.2-2.1,0.4-2.2-0.2
		c-0.6-0.8-2.5-1.4-4.7-1.9c-1.1-0.2-2.2-0.5-3.4-0.8l-1.7-0.5l-1.6-0.6l-2.2,0.4c-0.2-0.5-0.7-0.9,0-1.2c-2.2,0.2-3-1.2-4.6,0
		c-0.2-0.5,0.5-0.7,0.3-1c-0.2,0.1-0.7,0.3-0.9,0.1c-0.2-0.3,0.3-0.4,0.7-0.5c-2.2-0.2-2.5,1.3-2.7,2.6c-1-0.8-1.6-0.7-2.4,0.2
		c-0.3-0.5-0.9-1,0.4-1.1c-0.8-0.1-4.5-1-4.6,0.2c-0.2-0.3-1-0.1-1.3,0c-1.7-0.1-1.9-0.2-3.4-0.2l0.4,0.2c-0.7,1.4-1.4,0.3-2.6,0.5
		l0.1-0.2c-3-0.9-1.3,0.5-4.3-0.5l0.2,0.8c-0.2,1.9-2.6-0.9-4.4-0.1l0.7,0.4c-0.4,0.3-1.1-0.2-1.9-0.9c-0.7-0.7-1.5-1.4-2-1.5
		c-0.2-0.1,0.3-0.3,0.6-0.4c-2.6-0.8-0.2,1.1-2.1,1.6c-0.4-0.5,0.3-1.6-1-1.5c-0.7-0.4-3.3,2.4-5.2,1.5c0.4,0.4,0.9,0.8,0.1,1.3
		c-0.3,0.1-0.7,0.1-1.2,0c-0.4-0.1-0.9-0.2-1.4-0.2c-0.9-0.1-1.8-0.1-2.2,0.8c-0.2-0.1-0.3-0.2-0.3-0.3c-0.5,0.3-1.3,0.6-2,1
		c-0.7,0.4-1.4,0.8-1.6,1.3c-0.8-1.3-2.2-0.6-3.5,0.1c-1.3,0.8-2.4,1.5-2.8,0.2c0,0-0.8,0.3-1.5,0.5c-0.8,0.2-1.5,0.5-1.5,0.5v-0.3
		c-2,0.5-2.4,1.3-2.8,2.1c-0.5-0.1-0.3-0.4-0.3-0.5c-1.5,0.2-2.2,0.4-2.8,0.8c-0.7,0.4-1.2,1-2.1,2.1l-0.5-0.7
		c-0.2,0.3-1.3,0.4-2.6,0.7c-1.4,0.3-2.9,0.7-3.9,1.8c0-0.1-0.1-0.3,0.1-0.5c-0.7,0.6-1.5,1-2.2,1.3l-2.6,0.7
		c-1.7,0.5-2.9,1.1-2.6,2.7c0,0-0.4,0.4-0.8,0.9c-0.4,0.4-0.7,0.9-0.7,0.9c2.4-1.2,0.3,1.4,1.6,1.3c-0.8,0.7-2.8,0.6-1.9-0.2
		l0.3,0.1c-0.4-1.7-3.2,1.3-3.7,0.3c-4.5,2.9-9.2,5.4-13.2,8.6l1.3,0.6l-1.4,1.1c-0.5,0.1-1.1-0.3-0.2-1.1c-1-0.1-1.2,1.9-1,2.1
		c-2.2,1.3-0.3-1.8-0.9-1.3l-0.7,0.8l0.3-0.1c-0.3,0.9,0.1,1.4-1.1,2.4c-0.9,0.5-0.9-0.2-1.3,0c-0.1-0.1-0.2,0-0.4,0.4
		c0,0-0.4,0.4-0.9,0.8c-0.2,0.2-0.4,0.4-0.6,0.5l-0.3,0.3h0.7c0.3,0,0.7,0.1,0.7,0.1c-0.3,1.1-1.5,1.5,0.1,1.6
		c-0.6-0.1-1.3,0.3-2,0.8c-0.7,0.5-1.5,1.3-2.1,2c-1.3,1.6-2.4,3.1-2.9,3.2c-0.3,1.6-1.1,2.6-2.2,3.9c0.4-0.2,1.5,0.3,0.5,1.4
		c-1.6-1.8-2.3,1.6-4.4,1.7c1.5-0.3-2,3.7,0.3,3.1c-0.8,1-0.8-0.4-1.8,0.1c-0.1,0.4-0.2,0.8-0.4,1.1l-0.5,1.1
		c-0.4,0.7-0.9,1.4-1.4,2.1l-0.8,1.1c-0.2,0.4-0.5,0.8-0.7,1.1c-0.4,0.8-0.9,1.6-1.2,2.4c0.3,0.2,1-0.2,1,0.7c0,0-0.5,0.3-1.1,0.6
		c-0.5,0.3-1.1,0.6-1.1,0.6c-0.1,0.8,1.4,1.3-0.1,2.1c0.3-0.1,0.8-0.2,0.7,0.3c-0.3,0.4-0.5,0.8-0.7,1.1c-0.2,0.4-0.4,0.8-0.6,1.3
		c-0.4,0.8-0.7,1.7-1,2.5l-0.2,0.7l-0.2,0.7l-0.3,1.4l-0.6,2.6l-0.5,2.6c-0.1,0.4-0.2,0.9-0.3,1.4l-0.2,0.7l-0.2,0.7
		c-0.2,0.9-0.5,1.8-0.8,2.6c-0.2,0.4-0.4,0.9-0.5,1.3l-0.6,1.3c0.7-0.9,0.7-0.3,0.7,0.5c0.2-0.5,0.8,0.1,1.2,0.1l-1.5,2.8l1.1,3.6
		l-0.2-1c0.7,0.7,1.4,0.2,2.2-0.3c0.8-0.5,1.6-1.2,2.4-1c-0.8-0.7-0.1-1.6,0.5-2.5c0.6-1,1-2,0.1-3.1c0.4-0.4,0.5,0.5,0.9,0.3
		c-0.7-0.7-0.7-1.4-0.2-2.4l0.2,0.2c0.1-0.9,0.2-1.6,0.4-2.2s0.4-1.3,0.7-1.9l0.8-1.9c0.3-0.7,0.7-1.5,1-2.2l-0.9,0.1
		c0.3-0.8,0.7-0.9,0.9-1.2c-1-1.3-0.7,2.2-1.8,1c0.5-0.2,0.8-0.6,1.1-1.1c0.2-0.3,0.3-0.6,0.4-0.9l0.4-1c0.5-1.4,1-2.6,2-2.6
		l-0.5-1.2l0.6-0.1l-0.5-0.5c0.4-0.8,1.2-0.9,1.6-0.8l-0.2,0.8c0.5-0.4,0.7-1.1,0.9-1.8c0.2-0.7,0.3-1.3,0.4-1.4
		c0,0-0.2,0.3-0.4,0.5c-0.1,0.1-0.2,0.3-0.3,0.3c-0.1,0.1-0.1,0.2-0.1,0.2c0.2-0.9,0.6-1.7,1-2.5c0.4-0.9,0.8-1.7,1.3-2.5l1.3-2.5
		c0.4-0.9,0.7-1.7,0.9-2.5h-0.5c0.4-1.3,0.8-1.7,1.2-2.1c0.4-0.4,1-0.8,1.6-2v0.2c0-0.7,0.3-1.5,0.8-2.1c0,0.4,0.3,0.3,0.7,0.2
		s0.8-0.2,0.7,0.3c1.1-2.6,0.3-1.5,0.3-3.8l0.8,0.1c-0.1-0.9-0.3-1.1,0.5-2.2c-0.3,1.3,1.4-0.1,1.1,1.4c1.5-0.7,2-1.8,2.2-2.6
		c0.4-0.9,0.8-1.5,2-1.3c-0.4-2.2-2.5,1.3-2.2,0.4c-0.9,0.1-0.2-1.7,0.6-2.2c0.7-0.7,2.7,0.4,4.4-1.3c-0.2,0.2-0.1,0.3-0.3,0.4
		c1-0.3,0.9-1.7,2.2-1.9c-0.3-1.3,1.1-0.9,0.3-2.1c0,0-0.4,0.4-0.8,0.9c-0.2,0.2-0.4,0.4-0.5,0.6c-0.1,0.2-0.2,0.3-0.2,0.3
		c0.3-0.6,0.4-1.4,0.8-2.1c0.3-0.8,0.8-1.5,1.9-1.9c0.1,0.3-0.2,1-0.4,1.5c0.7-0.1,0.7-1,1.5-1.1c0.8,1.2-1.9,2-2.2,3.6
		c0.9,0,1.3-2.4,1.7-0.9c-0.5-2.1,1.9-1.4,2.2-3.4l0.4,0.7c0.1-0.3,0.3-0.9,0.7-1.2v1.4c0.2-0.8,0.9-1,1.5-1.2
		c0.3-0.1,0.7-0.2,0.9-0.3c0.3-0.1,0.5-0.3,0.8-0.6c-1.1,0.8-1.3,0.7-1.5,0.4c-0.2-0.3-0.2-0.8-0.9-0.7c0.5-0.8,0.9-1,1.3-1.1
		c0.4-0.1,0.8,0,1.2,0.1c0.8,0.2,1.7,0.5,3-0.8c-0.3,0.4-1.8,0.7-1.4-0.1c0.3-0.1,0.7-0.3,1.1-0.4c0.4-0.1,0.8-0.1,1.1-0.1
		c1.9-1.5-0.8-0.5-0.2-1.5c1.3,0.4,0.8-1,1.5-1.9l0.5,0.7c1.3-0.5,1.3-1,1.1-1.4c-0.1-0.4-0.2-0.9,1-1.3l-0.3,1.6l1-0.9l0.3,1
		c0.9-1.3,1.3-1.5,2.6-1.9c-0.6-0.4-0.6-1.5,0.5-2.1c1,0.1-0.1,0.9,1.5,0c-0.1,0.7-0.2,1.5-1.2,1.1c0.1,0.3-0.1,0.7,0,0.9
		c1.1,0.1,2.1-0.9,2.5-1.3c-0.2,0.1-0.5,0.2-0.7,0.2c0,0,0.4-0.5,0.8-1.1c0.4-0.5,0.9-1.1,0.9-1.1c0.5,0.1,0.3,0.5,0.2,0.9
		c0.4-0.3,0.5-0.8,1.2-1.2c0.1,0.7,0.5,1.4-0.3,2.1l1.9-1.7c0.3,0.2,1.5,0.2,1.3,0.6c1.4-0.2,2.4-2.4,4.2-2.6
		c0.1-0.2,0.2-0.3,0.5-0.6c1.6-0.4,3.2-0.2,4.7-1.7l1.5,0.8c1.4-0.8-2-1,0.4-2.2c1.6-1,1,0.8,1.7,0.9c0.7-0.9,1.9-2.5,3.6-2
		C183.2,251.5,182.8,251.5,182.4,251.7L182.4,251.7z M200.5,247.3c-0.3,0.2-1,0.9-1.4,0.4C199.5,246.8,199.9,247.1,200.5,247.3z
		 M229.3,244.9c-0.3,0.3-0.7,0.1-1.2-0.3C228.5,244.6,228.9,244.6,229.3,244.9z M305.1,274.6C304.6,273.7,304.7,274,305.1,274.6z
		 M306.1,276.2c0.2,0.1,0.3-0.1,0.3-0.2c-0.3,0.1-0.5-0.2-0.8-0.7C305.5,275.7,305.6,275.9,306.1,276.2z M132.1,271.8l0.4-0.1
		C132.1,272.4,132.2,272.1,132.1,271.8z M226,245.8c-0.1-0.2-0.1-0.3-0.1-0.5C225.6,245.4,225.6,245.6,226,245.8z M171.5,255.8
		c-0.1,0.1-0.1,0.1-0.1,0.2L171.5,255.8z M281,264.2c-0.2-0.3-0.3-0.5-0.3-0.8C280.5,263.6,280.5,263.9,281,264.2z M313.2,282.8
		l-0.9-0.8c0.4,0.4,0.4,0.7,0.4,1C312.9,282.8,313,282.5,313.2,282.8z M314.4,294c0.2,0.1,0.2,0.3,0.3,0.4l0.3-0.2
		C314.7,293.5,314.1,293.3,314.4,294L314.4,294z M311.7,285.3c-0.5,0.5,0.1,0.9,0.7,1.5l-0.1-0.1
		C313.1,286.3,312.4,285.8,311.7,285.3z M312.4,286.9c0.2,0.2,0.3,0.4,0.4,0.6C313.2,287.4,312.7,287.3,312.4,286.9z M308,277.6
		c0.1,0.4,0.9-0.4,0.8-0.1C309.6,277.3,306.2,276.3,308,277.6z M310.1,287.2l0.5-0.8h-0.8L310.1,287.2z M306.9,281.8
		c0,0,0.2,0.3,0.3,0.6c0.2,0.3,0.3,0.6,0.3,0.6c0.1-0.1,0.3-0.1,0.4,0.1C307.5,282.4,307.1,281.6,306.9,281.8L306.9,281.8z
		 M308,283.1c0.2,0.3,0.5,0.7,0.8,0.7L308,283.1z M308.9,286l-0.1-0.4l-0.5-0.8L308.9,286z M297.8,271.9c0,0-0.1-0.1-0.2-0.1
		s-0.3-0.2-0.4-0.3l-0.6-0.4c-0.3,0.1-0.2,0.5,0.3,0.8C297.3,272,297.7,272.3,297.8,271.9L297.8,271.9z M299.1,276.5
		c-0.1-0.4,0-0.5,0.1-0.9l-0.8,0.8L299.1,276.5L299.1,276.5z M296.1,273.9c-0.3,0.1-2.1-0.7-0.7,0.4
		C295.6,274.2,296.8,275,296.1,273.9z M280.8,260.5l0.3,0.2l0.9-1.6L280.8,260.5z M263.1,256.3c1.3,1,0.8-0.9,1.9,0.2
		c0.5-0.2-0.9-0.9-0.4-1C263.6,255.5,263.2,255.1,263.1,256.3z M264.6,255.5c0.2,0,0.4,0,0.5-0.1
		C264.9,255.4,264.7,255.4,264.6,255.5z M104.3,330.1l-0.4,1.1l0.6-0.7L104.3,330.1z M105.5,332.2l-1.1,0.3l1,0.7
		C105.3,332.9,105.2,332.4,105.5,332.2z M203.6,249.3l0.1-0.3c-0.2-0.3-0.4-0.3-0.9-0.3L203.6,249.3L203.6,249.3z M190.2,250.6h0.2
		l-0.7-0.9L190.2,250.6z M179.6,254.8c0.4-0.1,0.9-0.5,1.4-0.6C180.1,254.7,179.1,253.6,179.6,254.8z"/>
</g>
</svg>
