<?xml version="1.0" encoding="utf-8"?>
<!-- Generator: Adobe Illustrator 17.1.0, SVG Export Plug-In . SVG Version: 6.00 Build 0)  -->
<!DOCTYPE svg PUBLIC "-//W3C//DTD SVG 1.1//EN" "http://www.w3.org/Graphics/SVG/1.1/DTD/svg11.dtd">
<svg version="1.1" xmlns="http://www.w3.org/2000/svg" xmlns:xlink="http://www.w3.org/1999/xlink" x="0px" y="0px"
	 viewBox="0 0 792 360" enable-background="new 0 0 792 360" xml:space="preserve">
<g id="Layer_1">
</g>
<g id="Layer_2" display="none">
	
		<text transform="matrix(1 0 0 1 4.2514 123.7078)" display="inline" fill="#231F20" font-family="'BeltaBold'" font-size="169.3614">The Tea Company</text>
	
		<image display="inline" overflow="visible" width="280" height="234" xlink:href="../../../../../../../Desktop/Screen Shot 2014-03-18 at 9.58.53 PM.png"  transform="matrix(1.3153 0 0 1.3153 41.2409 437.7541)">
	</image>
</g>
<g id="Layer_3">
	<path fill="#92AB3E" d="M395.4,119.3c0,0-3.3-28.4-18.9-30.8c-15.6-2.4,38.8-15.6,28.9,30.8S395.4,119.3,395.4,119.3z"/>
	<path fill="#92AB3E" d="M415.3,120.3c0,0-0.9-23.2-12.8-40.2s-1.9-38.4,9.9-44.5s-22.3,7.6,17,37.9s10.4,34.1,0,46.9
		S415.3,120.3,415.3,120.3z"/>
	<g>
		<path fill="#231F20" d="M337.4,119c0,0,0,0.3,0.1,1c0.1,0.7,0.2,1.7,0.3,3c0.3,2.6,0.9,6.3,2.1,10.7c0.5,2.2,1.3,4.5,2.1,7
			c0.9,2.4,1.9,5,3.1,7.6c0.6,1.3,1.3,2.6,1.9,3.9c0.7,1.3,1.4,2.6,2.2,3.8c0.8,1.3,1.6,2.5,2.5,3.7c0.8,1.2,1.8,2.4,2.8,3.6
			c0.9,1.2,2,2.3,3,3.4c1.1,1.1,2.1,2.1,3.2,3.1c2.2,2,4.6,3.8,7,5.4c1.2,0.8,2.4,1.6,3.6,2.2c1.2,0.7,2.4,1.4,3.6,1.9
			c1.2,0.5,2.3,1.1,3.5,1.6c1.2,0.4,2.3,0.9,3.4,1.3c1.1,0.4,2.2,0.7,3.2,1c1,0.3,2,0.6,2.9,0.8c0.9,0.2,1.8,0.4,2.6,0.6
			c0.4,0.1,0.8,0.2,1.1,0.3c0.4,0.1,0.7,0.1,1.1,0.2c2.7,0.4,4.2,0.7,4.2,0.7s-1.6-0.1-4.3-0.4c-0.3,0-0.7-0.1-1.1-0.1
			c-0.4-0.1-0.8-0.1-1.2-0.2c-0.8-0.1-1.7-0.3-2.6-0.4c-0.9-0.1-1.9-0.3-3-0.6c-1-0.2-2.1-0.5-3.3-0.8c-1.1-0.3-2.3-0.7-3.5-1.1
			c-1.2-0.4-2.4-0.9-3.7-1.4c-1.3-0.4-2.5-1.1-3.8-1.7c-1.3-0.6-2.6-1.3-3.9-2c-2.6-1.4-5.2-3.2-7.6-5.1c-1.2-1-2.4-2-3.6-3
			c-1.1-1.1-2.3-2.2-3.4-3.4c-1.1-1.2-2.2-2.3-3.2-3.6c-1-1.2-2-2.5-2.9-3.8c-0.9-1.3-1.8-2.6-2.6-3.9c-0.8-1.3-1.6-2.6-2.3-3.9
			c-1.5-2.6-2.7-5.3-3.8-7.8c-1.1-2.5-2-5-2.8-7.3c-1.6-4.6-2.5-8.5-3.1-11.3c-0.3-1.4-0.5-2.5-0.6-3.3c-0.1-0.4-0.1-0.7-0.1-0.9
			c0-0.2,0-0.3,0-0.3L337.4,119z"/>
	</g>
	<path fill="#231F20" d="M352.3,119.3h116.5c0,0-1.8,60.1-62.2,66.3C358.9,187.3,352.3,119.3,352.3,119.3z"/>
	<text transform="matrix(1 0 0 1 3.977 340.5362)" fill="#231F20" font-family="'BeltaBold'" font-size="169.617">The Tea Company</text>
	<g>
		<g>
			<g>
				<g>
					<g>
						<path fill="#231F20" d="M617.9,185.2c-0.1,0.9,1.3,0.6,1.5,0.7C619,184.4,617.5,185.3,617.9,185.2z"/>
						<polygon fill="#231F20" points="613.9,170.5 614.5,170.7 612.9,168.7 						"/>
						<path fill="#231F20" d="M611.9,156.8c-1,0.9-0.6,2-0.1,3.4c0.5,1.3,1.2,2.8,1,4.1l-0.5,0.5l2,0.8
							C613.5,162.6,611.8,159,611.9,156.8z"/>
						<path fill="#231F20" d="M615.2,148.4c-0.8,0.7-1.2-1.4,0.2,1.8c0.1-0.2,0.1-0.3,0.2-0.4C615.4,149.5,615.3,149.1,615.2,148.4z
							"/>
						<path fill="#231F20" d="M615.5,149.8C615.9,151.3,616,148.7,615.5,149.8L615.5,149.8z"/>
						<path fill="#231F20" d="M613.2,143.3l1.3,1.7c0.4-0.5,0-2.3,0.6-1.8C614.1,141.3,613.7,141.9,613.2,143.3z"/>
						<path fill="#231F20" d="M611,141.9l0.6,0.9C611.8,142.6,611.8,142.3,611,141.9z"/>
						<path fill="#231F20" d="M612.9,144.7l-1.3-1.9c-0.3,0.4-1,0.6,0.5,0.9C611.4,143.7,612.2,143.9,612.9,144.7z"/>
						<path fill="#231F20" d="M612.9,146c-0.2,1.2-0.1,2.6-1.4,1C612.7,150.4,614.2,149.5,612.9,146z"/>
						<path fill="#231F20" d="M609.4,156.6l-0.4,1.5l1,1.1C609.5,158.7,610.1,156.4,609.4,156.6z"/>
						<path fill="#231F20" d="M610.4,131.2c-0.5,0.1-1,1.1-1.5,1.4l1,1.2C610,132.9,609.8,131.5,610.4,131.2z"/>
						<path fill="#231F20" d="M608.9,132.6c0,0-0.4-0.4-0.8-0.9c-0.4-0.4-0.8-0.8-0.8-0.8C607.9,132.7,608.4,132.9,608.9,132.6z"/>
						<path fill="#231F20" d="M608.5,142.4l2.6,2.9c0,0-0.7-0.9-1.4-1.8c-0.4-0.4-0.7-0.9-1-1.2c-0.3-0.3-0.5-0.5-0.5-0.5
							s0.1,0.2,0.1,0.3C608.4,142.2,608.5,142.4,608.5,142.4z"/>
						<path fill="#231F20" d="M607.3,123.4l1.5,0.7c0,0-0.6-0.3-1.2-0.7c-0.6-0.3-1.3-0.7-1.3-0.7L607.3,123.4z"/>
						<path fill="#231F20" d="M604.8,118.4c1.3,0.4,0.9-1.8,1.9-1.2c-0.8-1.3-2.1-2.1-3.3-2.8C604.3,115.3,604.8,116.5,604.8,118.4z
							"/>
						<path fill="#231F20" d="M601.5,113.2c0.5,0.4,1.2,0.8,1.9,1.2C602.9,113.9,602.3,113.5,601.5,113.2z"/>
						<path fill="#231F20" d="M606.2,127.4c0.2-0.3,0.8-0.9,0.7-2.1l-1,1.3C605.9,126.8,606.1,127.1,606.2,127.4z"/>
						<path fill="#231F20" d="M605.8,126.6L605.8,126.6c-0.3-0.9-0.5-1.5-0.6-1.8C605.3,125.1,605.5,125.6,605.8,126.6z"/>
						<path fill="#231F20" d="M606.2,127.6c0-0.1,0-0.1-0.1-0.2C606.1,127.5,606,127.6,606.2,127.6z"/>
						<path fill="#231F20" d="M607.9,136.7c-1.1-0.9-2.8-3.1-3.1-0.3C606,136.9,606.2,135.3,607.9,136.7z"/>
						<path fill="#231F20" d="M605,129.2l0.6,2.2c0.3-0.2,0.7-0.7,1.3-0.3L605,129.2z"/>
						<polygon fill="#231F20" points="604.2,128.4 605,129.2 604.8,128.4 						"/>
						<path fill="#231F20" d="M602.2,117.3c-0.5-0.3-0.8-0.7-1.2-1.2c-0.3-0.4-0.7-0.9-1-1.4c0.2,0.6,0.4,1.3,0.7,1.9
							c0.2,0.6,0.5,1.2,0.7,1.8C601.9,118.3,602.8,118.5,602.2,117.3z"/>
						<path fill="#231F20" d="M603.9,121.8c-0.1,0-0.1-0.1-0.2-0.2C603.7,121.8,603.7,122,603.9,121.8z"/>
						<path fill="#231F20" d="M594.1,104.2c0,0.1-0.1,0.2-0.1,0.3c0.1,0,0.1-0.1,0.2-0.1L594.1,104.2z"/>
						<path fill="#231F20" d="M601.3,118.7c0.2,1,0.7,1.4,1.4,1.7c-0.4-0.6-0.9-1.3-1.2-2C601.2,118.4,601.1,118.4,601.3,118.7z"/>
						<path fill="#231F20" d="M599.3,110.5c0,0.6,0.1,1.2,0.1,1.9C599.6,111.7,599.7,110.5,599.3,110.5z"/>
						<path fill="#231F20" d="M603.9,121.2c0,0,0.1,0.1,0.1,0.1C604.2,120.9,604.1,121,603.9,121.2z"/>
						<path fill="#231F20" d="M603.9,121.2c-0.4-0.4-0.9-0.6-1.3-0.8c0.4,0.5,0.7,0.9,1.1,1.3C603.8,121.5,603.9,121.4,603.9,121.2z
							"/>
						<path fill="#231F20" d="M584.6,106c1.2-0.6,3.5,0.9,3.4,3.5c1.9,1.3,4.9-2,5.9-4.9c-0.5,0.2-1,0.5-2.8-1
							c-0.2,1.1,1.2,5.1-0.8,4.1c-2.1-2.1-0.9-2.3-1-3.8c-0.4,0.9-1.3,0.5-2.4,0c-1.1-0.4-2.4-0.9-3.2,0c0,0,0.5,0.4,1.1,0.8
							c0.5,0.4,1,0.8,1,0.8C585.5,105.6,584.6,105.2,584.6,106z"/>
						<path fill="#231F20" d="M596.1,108.2c0,0,0.2,0.2,0.3,0.4c0.1,0.2,0.3,0.4,0.3,0.4c-0.3-1-0.3-1.9-0.1-3.7
							c-1.4-1-1.9-1-2.4-0.9l2.2,4L596.1,108.2z"/>
						<path fill="#231F20" d="M598.7,112.6c-1.6,0-3.1-1.6-3.8,0.3c1.4,2.3,1.9,1.1,3.2,2.2c-2.4-3.7,1.3,0.7,0.5-2.4
							c0.6,0.6,1.1,1.3,1.5,1.9c-0.2-0.8-0.4-1.5-0.5-2.3c0,0.1,0,0.1,0,0.1l0,0l0,0c-0.1,0.3-0.1,0.4-0.1,0.1c0,0-0.1,0-0.1-0.1
							C599,112.6,598.9,112.6,598.7,112.6c-0.3-1.3,0.2-0.4,0.6-0.1c0.1,0,0.1,0,0.2-0.1c0,0,0,0,0,0l-2.8-3.5
							C596.9,109.9,597.5,110.9,598.7,112.6z"/>
						<path fill="#231F20" d="M601.2,135.2c0.1-0.2,0.2-0.2,0.3-0.2C601.2,134.8,601.1,134.7,601.2,135.2z"/>
						<path fill="#231F20" d="M601.4,133.3c0.3,0.2,0.9,0.3,1.2,1.2c-0.1,1-0.6,0.2-1,0.4c0.6,0.4,1.6,1.7,1.7-0.4l-0.3-0.2
							c-0.2-1.8,0.6-4.5,0.9-4.3C602.8,131.1,602.1,131.8,601.4,133.3z"/>
						<path fill="#231F20" d="M600,123.1l-2.2-2.9l-0.3,2.2l0.6-0.4C598.8,123.8,599.4,123.1,600,123.1z"/>
						<polygon fill="#231F20" points="594.4,103.5 596,103.1 593.1,102.4 						"/>
						<polygon fill="#231F20" points="591.7,99.5 592.9,99 591.6,98.4 						"/>
						<path fill="#231F20" d="M358.8,28.7l-0.9,0.5C358.3,29,358.6,28.8,358.8,28.7z"/>
						<path fill="#231F20" d="M365.8,27.4l0.1-0.7C365.6,27.1,365.6,27.4,365.8,27.4z"/>
						<path fill="#231F20" d="M502.5,27.2c-0.9-1.7-1.9-4.1-2.2-2.7l-0.1,1.5C501.3,26.1,502,26.6,502.5,27.2z"/>
						<path fill="#231F20" d="M425.3,17c0.1,0.1,0.3,0.3,0.4,0.5c0.4-0.5,0.8-0.9,1.1-1.3C426.3,16.4,425.8,16.7,425.3,17z"/>
						<path fill="#231F20" d="M423.8,22.8l-1.9-1C422.3,22.1,422.9,22.5,423.8,22.8z"/>
						<path fill="#231F20" d="M321.8,41.5l-0.5,1.8C322.9,42.6,321.9,42.2,321.8,41.5z"/>
						<path fill="#231F20" d="M559.4,63.3c-0.6-1.3-1.3-2.2-2-2.9C558.1,62.1,558.3,63.9,559.4,63.3z"/>
						<path fill="#231F20" d="M358.6,13.4c-0.6,0.4-0.8,0.7-0.7,1C358.5,14.1,358.8,13.7,358.6,13.4z"/>
						<path fill="#231F20" d="M554.4,57.9c0.1,0.3,0.2,0.5,0.3,0.7c0.9,0.4,1.8,0.9,2.6,1.8c-0.3-0.6-0.6-1.2-1.1-1.7
							C555.9,58.3,555.2,58,554.4,57.9z"/>
						<path fill="#231F20" d="M221.7,134.9c-0.1,0.1-0.2,0.2-0.3,0.2C221.6,135.2,221.7,135.1,221.7,134.9z"/>
						<path fill="#231F20" d="M198.1,173c0-0.4,0-1.2,0.1-1.8C198,171.4,197.9,172,198.1,173z"/>
						<path fill="#231F20" d="M580.8,83.7C581.5,84.4,581,83.8,580.8,83.7L580.8,83.7z"/>
						<path fill="#231F20" d="M579.5,91c-0.3-0.1-0.5-0.1-0.8,0.1C579,91,579.3,91,579.5,91z"/>
						<path fill="#231F20" d="M541.3,58.9C541.2,58.8,541.2,58.8,541.3,58.9C541.3,59.2,541.3,59.1,541.3,58.9z"/>
						<path fill="#231F20" d="M581.3,85.3c-0.1-0.4-0.3-0.8-0.5-1.3C580.8,84.3,581,84.7,581.3,85.3z"/>
						<path fill="#231F20" d="M581.7,84.7c0.2,0.3,0.3,0.5,0.5,0.8C582.4,85.4,582.4,85.2,581.7,84.7z"/>
						<path fill="#231F20" d="M579.8,82.7c0.4,0.4,0.7,0.9,0.9,1.3c-0.1-0.2,0-0.3,0-0.3C580.6,83.5,580.3,83.2,579.8,82.7z"/>
						<path fill="#231F20" d="M262.9,71.6c-0.1,0-0.1,0-0.2,0C262.4,72.7,262.6,72.4,262.9,71.6z"/>
						<path fill="#231F20" d="M473.8,32.3c0,0,0.1,0,0.1,0c0,0-0.1-0.1-0.1-0.1L473.8,32.3z"/>
						<path fill="#231F20" d="M470.3,32.4c1.9-1.3,2.6-0.9,3.5-0.2l0.1-4.2c0,0-0.9,1.1-1.8,2.2C471.2,31.3,470.3,32.4,470.3,32.4z"
							/>
						<path fill="#231F20" d="M342.2,33.3l2.6,0.6c-2.1,2.8-4.3,2.6-1.7,3.8c-0.5-2.2,1.7-2.9,3.8-3.6c2.1-0.8,4.3-1.3,3.9-3.5
							l1.7,0.5c-0.4,0.1-0.4,0.3-0.9,0.4c3.4,1.4,1.4-3.6,5.4-3.9c1.4,0.1,2.5,0.5,1.7,1.2l2.8-1.6c0.9-0.1,0.8,0.7-0.1,0.8l4.5-1.2
							l0,0.1c0.5-0.8,1.8-2.1,2.5-2.7c1.3,0.5-0.5,0.6-0.1,1.1l2.4-1.4c1.2,1-0.7,2.4-2.5,2.5c3.1,4,1.9-1.4,7.4,0.4l-2.3,0.9
							c1.9,2.3,3.6,1,6.4,2.3c-0.4-0.4-1.8-1.2-2.9-2.1c-1-0.9-1.7-1.8-0.4-2.6c0.8,0.2,1.9,0.3,3.2-0.8c0.2,1.6,1.6,1,3.4,0.7
							l0.1,2.1c1.9-0.8,1.6-1.8,2.7-2.9c2.2,0,2.8,1.6,3.4,2.9c3.5,0.1-2.6-2.4,1.5-3.1c1.5,0.3,2.7,0.2,4-0.1
							c0.7-0.2,1.3-0.4,2-0.7c0.7-0.3,1.5-0.6,2.4-0.9c2.1,0.7-0.3,1.3,0.4,1.9l1.8-1.7c0.4,0,0.3,0.5,0.2,0.8
							c1.5-0.7,0.1-2.1,2.5-2.7c0.3-1.1,1.6-0.4,3.1,0.4c1.5,0.8,3.4,1.6,4.9,0.4c0.7,0.6-0.4,1.3-0.2,2.1c2.1-0.8,3-1.1,3.8-1.5
							c0.8-0.4,1.5-0.8,3.3-1.8l2.8,1.6c-2-1.7,0.8-3.4,3.3-4.7c-0.7-0.8-1.3-1.5-1.7-1.8l4-0.9c0.4,0.4,0,1.1-0.7,1.9
							c0.3-0.2,0.5-0.3,0.8-0.5c1.3,0.9,0.5,2-0.6,3.1c-0.4-0.4-0.9-0.9-1.3-1.4c-1.1,1.2-2,2.5-1.9,3.8c0.3-0.2,0.8-0.4,1.3-0.5
							c-0.3,0.3-0.5,0.6-0.4,0.8c0.1,0.2,0.5-0.2,1.2-0.7l0.7,2.4l0.3-0.9c0,0,0.3,0.1,0.8,0.3c0.4,0.2,1,0.4,1.6,0.7
							c1.2,0.5,2.4,1,2.4,1c1.9-1,3.7-2.2,5.8-3.3c2.1-1,4.4-1.7,7.4-1.8c-1.7,1.5-0.7,2.7-1.1,4.7c-1.2-2.3-4.5,0.2-7.3-0.6
							c1.5,0.4,1,1.3,0.6,1.6l5.4-1.2c-0.4,1.6,0.9,1.4,2.1,2.3c-0.2-1.7,0.8-2.1,2.2-2.1c1.4,0,3.1,0.4,4.3,0.1
							c-0.1,1.1-0.8,2.1-3.3,1.4c2.3,3,4.3-3.1,6.7-0.5c-0.6-0.1-0.9-0.3-1.3,0.2c0.8-0.3,2.1-0.1,3,0.2c0.9,0.4,1.5,1,1,1.3
							l-0.6-0.1c2,0.7,5.1,1.4,7.9,1.7c1.4,0.1,2.7,0.2,3.7,0c1-0.1,1.8-0.5,2.1-1.1c-0.1,0.4-1.4,3.1-1.8,3.5c0,0,2.4-1.7,4.9-3.5
							c1.3-0.9,2.5-1.7,3.4-2.4c0.9-0.6,1.6-1,1.6-1c-1.3,2.1-0.6,8.2-4.3,8.5c0.9,0.6,1.9,1.4,4.1,1.2c-0.5-0.5-0.6-3.8,0.4-3.7
							c1.6,3.3,1.3,1.9,3.5,5c-0.8-0.8,1.5-4,3-3.4c-0.4,0.4-1.1,3.5-1.8,3.7c0,0,0.3-0.1,0.8-0.3c0.5-0.2,1.1-0.4,1.7-0.7
							c1.3-0.5,2.5-1,2.5-1c-1.2,0.3-1.2,2.9-0.8,4.1c-0.1-0.8,3.2,1.3,4.3,1.3l-1.3-1.4c2,1,3.5,0.3,5.1-0.5
							c1.5-0.8,3.1-1.6,5.2-0.6c-0.8,0.5-3.1,3.7-1.2,5.1c1.7-1.4,8-6.3,12.4-5.7l0.2,1.3c0,0,0.9,0.1,1.7,0.1
							c0.8,0.1,1.7,0.2,1.7,0.2c-1.5,0.8-4.2,1.9-6.9,3c-2.7,1.1-5.4,2-7.2,2.5c1.2,1.5-0.1,1.4,2.2,2.4c0.4,1.3-1.9,0.8-2.6,0.5
							l4.9,3.1c0.4-1,1.6-1.1,2.9-1c1.2,0.1,2.4,0.2,2.7-0.7c0,0-0.4-0.1-1-0.2c-0.6-0.1-1.4-0.2-2.3-0.3c-1.7-0.2-3.4-0.4-3.4-0.4
							c0.7-2.1,6.1-4.1,9.7-1.6c0.5,1.3-2.5,3.1-2.8,3.8c0.8-0.4,4.2,0.6,4.2,1.2l-2.1,0.2c0.8,0.9,2,0.7,3.2,0.7
							c1.2,0,2.3,0.2,2.9,1.8c0.8,0.6,1,3.9,1.8,2.9c0-2.9,3.6-9.8,5.5-10.8c0.1,0.2,0.9,1.4,1.8,2.7c0.8,1.3,1.6,2.9,1.8,3.8
							c0.3,2.5-4.5,2.6-4.3,4.8c0.4-0.5,1.5-0.6,1.9-0.6c0.6,1-1.4,1.3,0.6,2.3c1.5-1.7,3.6,2.6,1.9-1c1.1,0.3,1.5,0.7,1.9,1.2
							c0.4,0.5,0.8,1.1,1.9,1.8c0.2-1.7,4.7-2.6,6.9-1.8c-0.4,0.4-0.5,1.3-0.5,1.7c1.8,1.4,3,2.7,4.1,4c1.2,1.3,2.3,2.5,3.9,3.8
							c0,0.6,1,2.5-0.2,2.6c0.7,0.1,1.6-0.1,2.6,0.7c0.6,3.1-2.3-1.7-2.4,1.3c1-0.9,3.6,0.8,5.6,1.4c0.9-1.8-2.9-3.1-4.8-3.7
							c1.8-2.1,6.1-2.2,10.3-0.1c3,2-0.1,2.4,0.6,2.5c2.2,2.5,4.1,2.6,5.8,2.8c1.6,0.2,3,0.5,4.2,3.2c0.2,2.8-2.5,2.4-3.1,3.7
							c-2.5-1.6-2.2-4-3.6-5.3c0,0,0.3,0.6,0.6,1.1c0.3,0.6,0.5,1.2,0.5,1.2c-1-0.3-2.7-1.3-3.1-2.4c0,0.6,0.6,1.4,1.3,2.3
							c0.7,1,1.7,2.1,2.8,3.3c1.1,1.2,2.2,2.4,3.2,3.7c1,1.3,1.8,2.6,2.3,3.8c1,0.3,2.5,1.1,2.6,0.1l-1.2-1.1
							c0.1-2.1,3.5,1.1,2.7-0.9c1.1,0.5,2.4,1,3.5,1.8c1.1,0.8,2.1,1.8,2.7,3.2l-1.2,1.7c0.4-0.4-0.3-2.3-1.3-2.6
							c1.5,0.5,0.7,5.4,3.7,4.9l-0.2-2.6c2.2,1.1,5.4,2.3,6.5,4.9c0.9-2.2-0.5-0.4,0.2-3.4c-0.7,1.5-1.7,0-2.6-1.3
							c-1-1.4-1.9-2.6-2.3-0.6c0.9-3.2-1.2-3.5-1.1-7c-0.5,0.5-0.4,1.5-1.6-0.5c-0.2,0-0.6,0-0.8,0c0-0.1,0-0.1-0.1-0.2
							c0,0.1,0,0.1,0,0.1c-0.1,0-0.2,0,0,0.1c0.1,0.6,0.1,1.2,0,1.6c-1.9,0-4.3-2.8-5.7-3.3c-0.7-1.3,0.9-0.1,1-1.1l-2.1-0.7
							c1-1.1-0.6-4.4,2.2-2.5c0,0-0.5-0.6-0.9-1.1c-0.5-0.6-1-1.1-1-1.1c-0.6-1.8-2-3.8-3.5-4.5c-0.7-1.3-3.6-1.4-1.9-1.3l-4-2.6
							l0.2-0.3c-0.8-0.8-1.7-1.5-2.7-2.2c-1-0.7-2-1.3-3.1-2c-2-1.4-3.9-3.1-5.1-5.7c-1.4-0.7-3-1.3-4.7-3.2l0.4-1.3
							c-1.8-0.9-4-4.6-5.5-4c0.1-1-0.4-1.9-1.1-2.7c-0.7-0.8-1.7-1.6-2.9-2.2c-2.3-1.3-4.9-2.4-6.2-3.6l-1,1.3
							c-2-1.4-4.2-2.1-7.1-3.1l-0.6,1.4c-2.7-0.3-5.2-4.1-8.8-5.9c0.5-0.4,1.3,0.2,1.8,0.9c-0.7-1.3-1.6-2.1-2.8-2.7
							c-1.1-0.6-2.4-0.8-3.7-1c-2.6-0.4-5.1-0.8-6.5-2.8c-1.2,0.1-1.9-0.4-2.4-1.1c0.1,0,0.2,0,0.3,0c-0.1-0.1-0.2-0.1-0.4-0.2
							c-0.3-0.4-0.7-0.9-1.1-1.3c0.3,0.5,0.6,0.9,0.9,1.2c-0.8-0.3-2-0.6-3.3-0.8l0.1-1.7c-0.1,0-0.2-0.1-0.3-0.1
							c-0.9-1-1.2,0.3-1,1.6c-0.7,0-1.3,0.1-1.9,0.2c0-2.7-3.3-0.4-3.6-3.4c-1.3,0.9-6.2-1.3-7.7,1.2c0.1-0.4-0.2-0.6,0.4-0.4
							c-1.2-0.7-2.4-1.5-3.8-1.1l0.1-2.1l-3.7,1.6c-0.7-0.9-1.2-1.5-1.2-2.1c0-0.5,0.4-1,1.5-1.5c-4.9,1-3.7-0.1-7.9,1.1l0.5-1.2
							c-1.3-0.3-3.8,0.8-4.3-0.4c-1.1-1.5-4.7-2.5-8.8-3.5c-2.1-0.4-4.3-0.9-6.5-1.5c-1.1-0.3-2.1-0.6-3.1-1c-1-0.3-2-0.7-2.9-1.1
							c0.9,4-3.3-2.2-4,0.7c-0.3-1-1.3-1.6,0-2.2c-4,0.3-5.7-2.2-8.7,0c-0.4-0.9,1-1.2,0.6-1.8c-0.3,0.2-1.3,0.6-1.7,0.1
							c-0.3-0.6,0.6-0.7,1.3-1c-4-0.3-4.7,2.4-5.2,5c-1.9-1.4-2.9-1.3-4.5,0.3c-0.6-0.9-1.7-1.9,0.7-2c-1.4-0.2-8.4-1.8-8.6,0.3
							c-0.4-0.5-1.9-0.2-2.3,0c-3.1-0.2-3.4-0.4-6.4-0.3l0.8,0.4c-1.2,2.5-2.5,0.6-5,0.9l0.1-0.3c-5.7-1.7-2.4,0.9-8-1l0.4,1.5
							c-0.3,3.4-5-1.7-8.2-0.2l1.2,0.8c-0.8,0.6-2.1-0.4-3.5-1.7c-1.3-1.2-2.7-2.6-3.6-2.7c-0.4-0.2,0.6-0.5,1.1-0.8
							c-4.9-1.5-0.4,2.1-3.8,2.9c-0.8-1,0.5-2.9-1.9-2.8c-1.3-0.8-6.3,4.5-9.8,2.8c0.8,0.7,1.7,1.5,0.2,2.3c-0.6,0.2-1.3,0.1-2.2,0
							c-0.8-0.1-1.7-0.3-2.5-0.4c-1.7-0.2-3.3-0.1-4.2,1.4c-0.4-0.2-0.5-0.4-0.6-0.6c-0.9,0.5-2.3,1.1-3.6,1.8
							c-1.3,0.7-2.5,1.5-2.9,2.3c-1.5-2.4-4.2-1.1-6.6,0.2c-2.4,1.4-4.6,2.8-5.3,0.4c0,0-1.4,0.5-2.8,0.9c-1.4,0.4-2.7,1-2.7,1
							l0-0.5c-3.6,0.9-4.5,2.4-5.4,3.9c-0.9-0.1-0.5-0.7-0.5-1c-2.8,0.3-4.2,0.8-5.4,1.5c-1.2,0.7-2.2,1.8-3.8,3.8l-1-1.3
							c-0.4,0.6-2.4,0.8-4.9,1.3c-2.5,0.5-5.5,1.3-7.4,3.3c0-0.2-0.1-0.5,0.2-0.9c-1.2,1.1-2.7,1.8-4.3,2.3
							c-1.6,0.5-3.3,0.8-4.9,1.3c-3.1,0.9-5.5,2.1-5,5.2c0,0-0.7,0.8-1.4,1.6c-0.7,0.8-1.3,1.6-1.3,1.6c4.6-2.2,0.6,2.6,2.9,2.4
							c-1.5,1.3-5.3,1.1-3.4-0.4l0.5,0.1c-0.8-3.1-6,2.3-7,0.5c-8.4,5.5-17.3,10.1-24.7,16.1l2.4,1.1l-2.6,2.1
							c-1,0.2-2.1-0.6-0.3-2.1c-1.8-0.2-2.2,3.5-1.9,3.9c-4.1,2.3-0.5-3.3-1.6-2.4l-1.3,1.4l0.5-0.1c-0.5,1.7,0.1,2.6-2,4.5
							c-1.6,0.9-1.7-0.4-2.3,0c-0.1-0.1-0.3,0-0.8,0.7c0,0-0.8,0.7-1.6,1.4c-0.4,0.3-0.8,0.7-1.1,1c-0.3,0.3-0.5,0.5-0.5,0.5
							s0.6,0,1.2,0c0.6,0,1.3,0.1,1.3,0.1c-0.6,2-2.8,2.8,0.1,2.9c-1.1-0.1-2.3,0.6-3.6,1.5c-1.3,1-2.7,2.3-3.9,3.7
							c-2.4,2.9-4.6,5.8-5.5,6.1c-0.5,2.9-2.1,4.9-4.1,7.3c0.8-0.4,2.7,0.5,1,2.5c-3-3.3-4.4,3-8.2,3.1c2.8-0.6-3.7,6.9,0.5,5.8
							c-1.5,1.8-1.5-0.7-3.3,0.2c-0.2,0.7-0.4,1.4-0.7,2c-0.3,0.7-0.6,1.3-1,2c-0.7,1.3-1.6,2.6-2.5,3.9c-0.5,0.7-0.9,1.3-1.4,2
							c-0.4,0.7-0.9,1.4-1.3,2.1c-0.8,1.4-1.6,2.9-2.2,4.5c0.5,0.3,1.8-0.3,1.9,1.3c0,0-1,0.5-2,1.1c-1,0.6-2,1.1-2,1.1
							c-0.2,1.4,2.6,2.4-0.2,3.9c0.6-0.1,1.4-0.4,1.3,0.5c-0.5,0.7-0.9,1.4-1.3,2.1c-0.4,0.7-0.7,1.5-1.1,2.3
							c-0.7,1.5-1.3,3.1-1.8,4.7l-0.4,1.2l-0.3,1.2l-0.6,2.5c-0.4,1.6-0.8,3.3-1.1,4.9c-0.3,1.7-0.6,3.3-1,5
							c-0.2,0.8-0.4,1.7-0.6,2.5l-0.3,1.2l-0.3,1.2c-0.4,1.6-0.9,3.3-1.5,4.9c-0.3,0.8-0.7,1.6-1,2.4c-0.3,0.8-0.7,1.6-1.1,2.4
							c1.3-1.7,1.3-0.5,1.2,0.9c0.3-0.9,1.4,0.2,2.2,0.1l-2.7,5.4c2.1,1.1,0,6.1,2,6.7l-0.3-1.8c1.2,1.2,2.6,0.4,4-0.6
							c1.5-1,3-2.2,4.6-1.9c-1.4-1.3-0.2-2.9,0.9-4.7c1.1-1.8,1.9-3.6,0.2-5.9c0.8-0.8,0.9,0.9,1.7,0.5c-1.2-1.2-1.3-2.5-0.3-4.6
							l0.3,0.3c0.2-1.6,0.3-3,0.7-4.2c0.4-1.2,0.8-2.3,1.2-3.5c0.5-1.1,0.9-2.3,1.4-3.5c0.6-1.3,1.2-2.7,1.9-4.3l-1.6,0.1
							c0.6-1.4,1.2-1.6,1.7-2.2c-1.8-2.4-1.3,4.2-3.3,1.9c0.9-0.3,1.5-1.1,2-2.1c0.3-0.5,0.5-1.1,0.7-1.7c0.2-0.6,0.5-1.2,0.7-1.9
							c0.9-2.5,1.9-4.9,3.7-4.9c0.9-2.2-1.9,0-1-2.2l1.1-0.2l-0.9-1c0.8-1.4,2.2-1.6,3-1.4c-0.2,0.3-0.2,1.1-0.3,1.5
							c0.9-0.7,1.3-2,1.6-3.3c0.3-1.2,0.5-2.3,0.8-2.5c0,0-0.4,0.5-0.8,0.9c-0.2,0.2-0.4,0.5-0.5,0.6c-0.1,0.2-0.2,0.3-0.2,0.3
							c0.4-1.6,1.1-3.1,1.8-4.7c0.7-1.6,1.4-3.2,2.3-4.8c0.8-1.6,1.6-3.2,2.3-4.8c0.7-1.6,1.3-3.1,1.7-4.8l-0.9,0
							c0.7-2.4,1.4-3.1,2.2-3.9c0.8-0.7,1.8-1.4,3-3.7l0,0.3c0-1.3,0.5-2.7,1.4-3.8c0,0.8,0.6,0.5,1.3,0.3c0.7-0.2,1.4-0.4,1.2,0.6
							c2-5,0.6-2.7,0.6-7.1l1.4,0.1c-0.1-1.6-0.5-2.1,1-4.3c-0.6,2.3,2.5-0.1,2,2.6c2.8-1.3,3.6-3.3,4.3-4.9
							c0.8-1.6,1.4-2.8,3.7-2.4c-0.7-4.2-4.7,2.3-4.2,0.7c-1.6,0.2-0.4-3.2,1.1-4.3c1.3-1.3,5.1,0.7,8.3-2.4
							c-0.3,0.3-0.2,0.5-0.5,0.8c1.8-0.5,1.6-3.1,4-3.5c-0.5-2.3,2.1-1.7,0.6-3.8c0,0-0.7,0.8-1.4,1.6c-0.3,0.4-0.7,0.8-0.9,1.1
							c-0.2,0.3-0.4,0.5-0.4,0.5c0.6-1.1,0.8-2.5,1.4-3.9c0.6-1.4,1.5-2.7,3.4-3.4c0.1,0.6-0.3,1.9-0.7,2.7c1.3-0.2,1.3-1.8,2.7-2
							c1.4,2.2-3.4,3.7-4,6.8c1.6,0,2.3-4.5,3.2-1.6c-1-3.9,3.5-2.6,4.2-6.5l0.8,1.3c0.2-0.5,0.5-1.7,1.2-2.2l0,2.6
							c0.4-1.4,1.6-1.9,2.8-2.2c0.6-0.2,1.2-0.3,1.7-0.6c0.6-0.2,1-0.5,1.4-1.1c-2,1.4-2.4,1.3-2.7,0.7c-0.3-0.5-0.4-1.4-1.6-1.2
							c0.9-1.4,1.7-1.9,2.4-2.1c0.7-0.2,1.4,0,2.2,0.2c1.5,0.4,3.1,0.9,5.6-1.4c-0.6,0.7-3.3,1.2-2.6-0.2c0.6-0.2,1.3-0.5,2.1-0.7
							c0.7-0.1,1.5-0.2,2-0.1c3.5-2.7-1.5-0.9-0.4-2.8c2.3,0.7,1.4-1.8,2.8-3.5l0.9,1.3c2.4-1,2.3-1.8,2.1-2.6
							c-0.2-0.8-0.4-1.6,1.9-2.3l-0.6,2.9l1.8-1.7l0.5,1.8c1.6-2.4,2.4-2.7,4.9-3.4c-1.1-0.7-1.1-2.7,0.9-3.8c1.8,0.1-0.1,1.7,2.7,0
							c-0.2,1.2-0.3,2.7-2.2,2.1c0.1,0.5-0.2,1.2,0,1.7c2,0.2,3.8-1.7,4.8-2.3c-0.4,0.2-0.9,0.3-1.3,0.3c0,0,0.8-1,1.5-2.1
							c0.8-1,1.6-2,1.6-2c0.9,0.2,0.6,0.9,0.3,1.6c0.8-0.6,1-1.5,2.2-2.2c0.2,1.3,0.9,2.5-0.6,3.8l3.4-3.2c0.5,0.4,2.7,0.4,2.4,1.1
							c2.5-0.3,4.5-4.6,7.9-5c0.1-0.3,0.3-0.6,0.9-1.1c3-0.8,6-0.3,8.8-3.2l2.7,1.5c2.5-1.4-3.6-1.9,0.7-4.2c3-1.8,1.8,1.5,3.1,1.7
							c1.2-1.7,3.4-4.7,6.8-3.7C343.9,33,343,32.9,342.2,33.3z M376.4,25.1c-0.6,0.4-1.8,1.6-2.5,0.8
							C374.4,24,375.1,24.7,376.4,25.1z M430.3,20.5c-0.6,0.5-1.3,0.1-2.2-0.6C428.8,19.9,429.5,20,430.3,20.5z M572.5,76.3
							c0,0-0.1,0-0.1,0C571.7,74.6,571.9,75.2,572.5,76.3z M574.3,79.2c0.4,0.1,0.5-0.1,0.6-0.3c-0.5,0.1-1-0.4-1.5-1.2
							C573.3,78.2,573.4,78.7,574.3,79.2z M248.1,70.9l0.8-0.2C248.1,72.1,248.2,71.5,248.1,70.9z"/>
						<path fill="#231F20" d="M424,22.1c-0.2-0.3-0.2-0.6-0.2-0.9C423.4,21.5,423.4,21.8,424,22.1z"/>
						<path fill="#231F20" d="M321.9,41.1c0,0-0.1,0-0.1,0c0,0.1,0,0.2,0,0.3L321.9,41.1z"/>
						<path fill="#231F20" d="M527.2,56.7c-0.4-0.5-0.6-1-0.6-1.4C526.3,55.6,526.4,56,527.2,56.7z"/>
						<path fill="#231F20" d="M587.8,91.6l-1.7-1.5c0.7,0.8,0.7,1.3,0.8,1.9C587.2,91.7,587.4,91,587.8,91.6z"/>
						<path fill="#231F20" d="M589.9,112.5c0.3,0.2,0.3,0.6,0.6,0.7l0.6-0.4C590.5,111.7,589.5,111.2,589.9,112.5z"/>
						<path fill="#231F20" d="M584.8,96.3c-1,0.9,0.1,1.7,1.2,2.8c-0.1-0.1-0.1-0.1-0.2-0.2C587.6,98.2,586.2,97.2,584.8,96.3z"/>
						<path fill="#231F20" d="M586.2,99.4c0.3,0.3,0.6,0.7,0.8,1.1C587.7,100.2,586.8,100,586.2,99.4z"/>
						<path fill="#231F20" d="M577.8,81.9c0.2,0.8,1.6-0.8,1.4-0.1C581,81.3,574.6,79.4,577.8,81.9z"/>
						<polygon fill="#231F20" points="581.9,99.8 582.9,98.4 581.4,98.5 						"/>
						<path fill="#231F20" d="M575.9,89.8c0,0,0.3,0.5,0.6,1.1c0.3,0.5,0.5,1.1,0.5,1.1c0.2-0.2,0.5-0.1,0.8,0.2
							C577,90.9,576.2,89.4,575.9,89.8z"/>
						<path fill="#231F20" d="M577.8,92.1c0.4,0.6,0.9,1.2,1.4,1.3C578.9,93.1,578.3,92.5,577.8,92.1z"/>
						<polygon fill="#231F20" points="579.7,97.5 579.5,96.7 578.6,95.3 						"/>
						<path fill="#231F20" d="M558.8,71.1c0,0-0.1-0.1-0.3-0.2c-0.2-0.1-0.5-0.3-0.8-0.5c-0.6-0.3-1.1-0.7-1.1-0.7
							c-0.6,0.2-0.3,1,0.6,1.4C557.9,71.3,558.7,71.8,558.8,71.1z"/>
						<path fill="#231F20" d="M561.2,79.7c-0.2-0.7,0-1,0.1-1.6l-1.5,1.4L561.2,79.7z"/>
						<path fill="#231F20" d="M555.6,74.9c-0.5,0.2-3.8-1.3-1.3,0.8C554.8,75.5,556.9,76.9,555.6,74.9z"/>
						<polygon fill="#231F20" points="526.9,49.9 527.5,50.2 529.1,47.3 						"/>
						<path fill="#231F20" d="M493.8,41.9c2.4,1.9,1.4-1.6,3.5,0.3c0.9-0.4-1.7-1.6-0.8-1.9C494.6,40.3,493.9,39.5,493.8,41.9z"/>
						<path fill="#231F20" d="M496.5,40.3c0.3,0,0.7,0,1-0.1C497,40.1,496.7,40.2,496.5,40.3z"/>
						<polygon fill="#231F20" points="195.8,180.3 195.1,182.3 196.2,181.1 						"/>
						<path fill="#231F20" d="M198.2,184.3l-2.1,0.5l1.9,1.2C197.8,185.5,197.7,184.6,198.2,184.3z"/>
						<path fill="#231F20" d="M382,28.7l0.1-0.5c-0.3-0.5-0.8-0.5-1.7-0.5L382,28.7z"/>
						<polygon fill="#231F20" points="356.9,31.2 357.3,31.1 356.1,29.5 						"/>
						<path fill="#231F20" d="M337.2,39.1c0.8-0.2,1.7-0.9,2.5-1.1C338,38.9,336.2,36.9,337.2,39.1z"/>
					</g>
				</g>
			</g>
		</g>
	</g>
</g>
</svg>
