<?xml version="1.0" encoding="utf-8"?>
<!-- Generator: Adobe Illustrator 17.1.0, SVG Export Plug-In . SVG Version: 6.00 Build 0)  -->
<!DOCTYPE svg PUBLIC "-//W3C//DTD SVG 1.1//EN" "http://www.w3.org/Graphics/SVG/1.1/DTD/svg11.dtd">
<svg version="1.1" id="Layer_3" xmlns="http://www.w3.org/2000/svg" xmlns:xlink="http://www.w3.org/1999/xlink" x="0px" y="0px"
	 viewBox="0 0 500 500" enable-background="new 0 0 500 500" xml:space="preserve">
<path fill="#E82446" d="M236.6,313.4c0,0-48,77.2-48.3,89.9c-0.3,16.1,10,35,38.3,41.6s63.7-6.4,63.7-6.4s37.8-15.8,7.9-57.9
	c-21-29.4-36.6-57.8-36.6-57.8S249,289.5,236.6,313.4z"/>
<path fill="#FFFFFF" d="M237.2,338.3c0,0-45.5,69.9,8.9,93.2S237.2,338.3,237.2,338.3z"/>
<ellipse transform="matrix(0.9531 0.3027 -0.3027 0.9531 47.3036 -15.4345)" fill="#3EC3D4" cx="73.5" cy="144.9" rx="45.8" ry="34.1"/>
<ellipse transform="matrix(0.9885 0.1512 -0.1512 0.9885 28.9089 -27.0727)" fill="#3EC3D4" cx="192.5" cy="176.5" rx="45.8" ry="34.1"/>
<ellipse transform="matrix(0.9951 -9.869895e-02 9.869895e-02 0.9951 -16.2961 31.1228)" fill="#3EC3D4" cx="306.4" cy="180.3" rx="45.8" ry="34.1"/>
<ellipse transform="matrix(0.9563 -0.2923 0.2923 0.9563 -25.2015 131.1296)" fill="#3EC3D4" cx="426.2" cy="149.9" rx="45.8" ry="34.1"/>
<rect x="123.6" y="151.3" transform="matrix(0.9876 0.157 -0.157 0.9876 27.4991 -18.9278)" fill="#8D4057" width="20" height="26.6"/>
<rect x="239" y="171.9" transform="matrix(0.9993 3.628002e-02 -3.628002e-02 0.9993 6.8823 -8.9124)" fill="#8D4057" width="20" height="26.6"/>
<rect x="356.7" y="158.2" transform="matrix(0.9746 -0.2241 0.2241 0.9746 -29.1111 86.5557)" fill="#8D4057" width="20" height="26.6"/>
<path fill="none" stroke="#8D4057" stroke-width="13.3147" stroke-miterlimit="10" d="M108.4,68.4c0,0,133.1,119.8,285.4,0"/>
<path fill="#E6602E" d="M126.7,48.4c0,0,27.1-38.5,43.3,10.4c14.1,42.9,29.1-7.5,29.1-7.5s8.3-35.1,31.6,25
	c10,25.9,24.5-14.6,24.5-14.6s5.5-25.8,21.6,11.7c12.1,28,17.1-11.7,16.6-21.2c-0.4-9.6,12.6-13,29.5,7.1
	c13.7,16.2,14.4-16.7,12.9-28.3c-2.1-16.6,17-34.5,35.8,8.4C371.8,39.2,254,158.6,126.7,48.4z"/>
<ellipse transform="matrix(0.9839 0.179 -0.179 0.9839 45.3412 -13.3822)" fill="#E6602E" cx="96.8" cy="244.6" rx="10" ry="34.1"/>
<ellipse transform="matrix(0.9839 0.179 -0.179 0.9839 47.462 -18.582)" fill="#E6602E" cx="126.7" cy="253.7" rx="10" ry="34.1"/>
<ellipse transform="matrix(0.9869 -0.1616 0.1616 0.9869 -35.1415 63.3492)" fill="#E6602E" cx="371.8" cy="247.7" rx="10" ry="34.1"/>
<ellipse transform="matrix(0.9869 -0.1616 0.1616 0.9869 -33.4925 68.6407)" fill="#E6602E" cx="405.1" cy="240.2" rx="10" ry="34.1"/>
<path fill="none" stroke="#874855" stroke-width="6.6573" stroke-miterlimit="10" d="M6,206.5c0,0,16.8-51.3,25.1-3.4
	s20.6,20.7,28.1,17.1s7.5,20,7.5,20"/>
<path fill="none" stroke="#874855" stroke-width="6.6573" stroke-miterlimit="10" d="M166.6,260.8c0,0,2.5-32.5,14.3-5.6
	s15.1,9.2,18.9,6c3.9-3.2,7.3,10.7,7.3,10.7"/>
<path fill="none" stroke="#874855" stroke-width="6.6573" stroke-miterlimit="10" d="M494.3,206.5c0,0-16.8-51.3-25.1-3.4
	s-20.6,20.7-28.1,17.1c-7.5-3.6-7.5,20-7.5,20"/>
<path fill="none" stroke="#874855" stroke-width="6.6573" stroke-miterlimit="10" d="M333.8,260.8c0,0-2.5-32.5-14.3-5.6
	s-15.1,9.2-18.9,6c-3.9-3.2-7.3,10.7-7.3,10.7"/>
<rect x="232.5" y="255.5" transform="matrix(-0.6814 0.7319 -0.7319 -0.6814 617.7437 275.0236)" fill="#874855" width="33" height="33"/>
</svg>
